<?xml version="1.0" encoding="UTF-8" standalone="no"?>
<svg
   xmlns:dc="http://purl.org/dc/elements/1.1/"
   xmlns:cc="http://creativecommons.org/ns#"
   xmlns:rdf="http://www.w3.org/1999/02/22-rdf-syntax-ns#"
   xmlns:svg="http://www.w3.org/2000/svg"
   xmlns="http://www.w3.org/2000/svg"
   viewBox="0 0 4946.6665 4946.6665"
   height="4946.6665"
   width="4946.6665"
   xml:space="preserve"
   id="svg2"
   version="1.1"><metadata
     id="metadata8"><rdf:RDF><cc:Work
         rdf:about=""><dc:format>image/svg+xml</dc:format><dc:type
           rdf:resource="http://purl.org/dc/dcmitype/StillImage" /></cc:Work></rdf:RDF></metadata><defs
     id="defs6"><clipPath
       id="clipPath24"
       clipPathUnits="userSpaceOnUse"><path
         id="path22"
         d="m 18903.8,4820 c -1681.9,0 -2966.7,235.1 -3479.1,339.2 -1553.3,315.5 -4317.6,876.8 -6699.96,2836 H 19327 c -5.2,-919.3 -3,-1724.8 11.4,-2261.9 5.6,-207.5 147.8,-374.1 325.2,-380.9 522.2,-20 1873.5,-58.2 3184.3,-71 C 21426.3,4933 20069.8,4820 18903.8,4820 m 6837.1,1507.8 c 2.3,144.6 4.8,302.4 7.2,471.3 51.6,41.8 103.1,84.6 154.6,128.6 3.2,-3.4 6.3,-6.7 9.6,-10.2 60,-63.7 138.7,-93.8 216.8,-93.8 112.7,0 224,62.7 276.1,177.8 81.7,180.3 180.6,419.2 280.1,709.3 130.8,153.7 257.6,316.9 378.7,489.7 1070.2,1527.3 1631.9,3197 1899.8,4855.9 314.5,-1.3 611.1,-1.9 887.7,-1.9 544.1,0 1009.1,2.5 1377.3,7.9 130.9,2 256.8,24.9 374.3,65.7 C 31053.5,11394.7 30218,9870.9 29143,8739.2 28573.6,8139.7 28034.7,7753.1 27609,7447.6 26996.6,7008.2 26370.5,6638.3 25740.9,6327.8 m -19847.34,5264 c -2203.97,4503.6 -1371.09,10358.7 1213.84,14434.4 557.49,879 3502.3,5757.6 9487.5,6540 594.1,77.6 1204.8,116.9 1823.4,116.9 3153,0 6522.6,-1018.5 9078.8,-3160.2 1037.4,-869 1894.9,-1881.1 2585.8,-2986.9 -3932.5,110.2 -14257.5,340.6 -19008.5,340.6 -638.4,0 -1175.47,-4.2 -1583.56,-13.3 -641.71,-14.4 -1154.11,-538.6 -1154.11,-1180.5 v -6678.7 l -1840.52,47.6 c -6.41,0.2 -12.85,0.3 -19.24,0.3 -196.26,0 -384.82,-77.7 -524.12,-216.6 -143.84,-143.4 -222.54,-339.4 -217.74,-542.3 l 158.45,-6701.3" /></clipPath><linearGradient
       id="linearGradient32"
       spreadMethod="pad"
       gradientTransform="matrix(-24793,30791.3,30791.3,24793,35963.7,-3403.8)"
       gradientUnits="userSpaceOnUse"
       y2="0"
       x2="1"
       y1="0"
       x1="0"><stop
         id="stop28"
         offset="0"
         style="stop-opacity:1;stop-color:#dae3fe" /><stop
         id="stop30"
         offset="1"
         style="stop-opacity:1;stop-color:#e9effd" /></linearGradient><clipPath
       id="clipPath42"
       clipPathUnits="userSpaceOnUse"><path
         id="path40"
         d="m 18562.8,14165.4 -506.5,-4542.9 h 5876.8 l -765.5,4542.9 h -4604.8" /></clipPath><linearGradient
       id="linearGradient50"
       spreadMethod="pad"
       gradientTransform="matrix(-304.984,6038.62,6038.62,304.984,21111.5,7310)"
       gradientUnits="userSpaceOnUse"
       y2="0"
       x2="1"
       y1="0"
       x1="0"><stop
         id="stop46"
         offset="0"
         style="stop-opacity:1;stop-color:#09005d" /><stop
         id="stop48"
         offset="1"
         style="stop-opacity:1;stop-color:#1a0f91" /></linearGradient><clipPath
       id="clipPath60"
       clipPathUnits="userSpaceOnUse"><path
         id="path58"
         d="m 29851.5,13054.5 c -276.6,0 -573.2,0.6 -887.7,1.9 50.3,312 90.3,623.7 121.3,933.9 l 2693.4,-45.9 h 0.6 c 18.1,0 33,14.6 33.3,32.8 0.4,18.4 -14.3,33.6 -32.7,34 l -2688.1,45.8 c 10.6,109.7 20,219 28.3,328.3 l 1573.4,-19.4 c 4.6,-0.1 9.4,-0.1 14,-0.1 503.4,-0.1 913.6,407.2 915.5,912.4 l 34.7,10080.8 c 0,0.7 0,1.4 0,2.1 0.3,363.6 -289.7,661.1 -653.4,670 l -21252.22,429.3 c -6.03,0.2 -12.03,0.3 -18.02,0.3 -399.42,0 -725.34,-324.1 -725.34,-725.7 v -6748.3 l -671.79,17.4 v 6678.7 c 0,641.9 512.4,1166.1 1154.11,1180.5 408.09,9.1 945.16,13.3 1583.56,13.3 4751,0 15076,-230.4 19008.5,-340.6 356.7,-10 661,-19 903.5,-26.8 591.5,-18.9 1085.1,-456.2 1175.9,-1040.9 431.5,-2776.7 314.9,-8757.6 243.1,-11244.9 -14.7,-508.7 -345.6,-936.7 -802.3,-1095.3 -117.5,-40.8 -243.4,-63.7 -374.3,-65.7 -368.2,-5.4 -833.2,-7.9 -1377.3,-7.9" /></clipPath><linearGradient
       id="linearGradient68"
       spreadMethod="pad"
       gradientTransform="matrix(24139,0,0,-24139,8336.73,19965.6)"
       gradientUnits="userSpaceOnUse"
       y2="0"
       x2="1"
       y1="0"
       x1="0"><stop
         id="stop64"
         offset="0"
         style="stop-opacity:1;stop-color:#09005d" /><stop
         id="stop66"
         offset="1"
         style="stop-opacity:1;stop-color:#1a0f91" /></linearGradient><clipPath
       id="clipPath78"
       clipPathUnits="userSpaceOnUse"><path
         id="path76"
         d="M 9008.52,25735 V 15563.2 c 0,-514.2 412.78,-933.2 926.94,-940.9 l 20757.84,-256.4 c 509.8,-7.6 927.6,402.5 929.5,912.3 l 34.7,10080.8 c 1.4,364.5 -289,663.2 -653.4,672.1 l -21252.22,429.3 c -407.59,10 -743.36,-317.7 -743.36,-725.4" /></clipPath><linearGradient
       id="linearGradient86"
       spreadMethod="pad"
       gradientTransform="matrix(-1842.74,-23782,-23782,1842.74,21360.4,33987.6)"
       gradientUnits="userSpaceOnUse"
       y2="0"
       x2="1"
       y1="0"
       x1="0"><stop
         id="stop82"
         offset="0"
         style="stop-opacity:1;stop-color:#53d8ff" /><stop
         id="stop84"
         offset="1"
         style="stop-opacity:1;stop-color:#3840f7" /></linearGradient><clipPath
       id="clipPath100"
       clipPathUnits="userSpaceOnUse"><path
         id="path98"
         d="m 25199,8693 h -8601.1 c -233.7,0 -409.2,166.3 -364,345 l 110.4,436.5 c 33.2,131.3 177.6,227.6 349.1,233 l 8291.7,258.7 c 179.2,5.6 337.9,-89.5 377,-225.9 L 25561,9045 c 51.7,-180.6 -124.6,-352 -362,-352" /></clipPath><linearGradient
       id="linearGradient108"
       spreadMethod="pad"
       gradientTransform="matrix(-2805.83,-6160.62,-6160.62,2805.83,21130.5,9588.6)"
       gradientUnits="userSpaceOnUse"
       y2="0"
       x2="1"
       y1="0"
       x1="0"><stop
         id="stop104"
         offset="0"
         style="stop-opacity:1;stop-color:#09005d" /><stop
         id="stop106"
         offset="1"
         style="stop-opacity:1;stop-color:#1a0f91" /></linearGradient><clipPath
       id="clipPath122"
       clipPathUnits="userSpaceOnUse"><path
         id="path120"
         d="m 31653.5,24179.9 4,1181.3 c 1.4,364.6 -289,662.1 -653.4,671 L 9757.31,26461 c -407.59,9.9 -737.93,-318.3 -737.93,-726 v -1555.1 z" /></clipPath><linearGradient
       id="linearGradient130"
       spreadMethod="pad"
       gradientTransform="matrix(22638.1,0,0,-22638.1,9019.39,25320.6)"
       gradientUnits="userSpaceOnUse"
       y2="0"
       x2="1"
       y1="0"
       x1="0"><stop
         id="stop126"
         offset="0"
         style="stop-opacity:1;stop-color:#4f52ff" /><stop
         id="stop128"
         offset="1"
         style="stop-opacity:1;stop-color:#4042e2" /></linearGradient><clipPath
       id="clipPath164"
       clipPathUnits="userSpaceOnUse"><path
         id="path162"
         d="M 19333,8798.9 H 6093.03 c -83.49,52 -139.34,144.6 -139.34,249.7 l -60.13,2543.2 -158.45,6701.3 c -4.8,202.9 73.9,398.9 217.74,542.3 139.3,138.9 327.86,216.6 524.12,216.6 6.39,0 12.83,-0.1 19.24,-0.3 l 1840.52,-47.6 671.79,-17.4 13043.28,-337.5 c 12.5,0.9 24.8,1.3 37,1.3 325.6,0 502.8,-299.1 502.8,-455 l -1,-65.6 -12.6,-868.4 c -92.9,-618.4 -149.7,-1290.1 -144.7,-2001 -95.1,5.8 -189.7,11.4 -284.4,16.8 l 35.5,2357 c -14.3,485.9 -429,669.1 -696,669.1 -7.6,0 -15.1,-0.1 -22.4,-0.4 l -14908.62,400 c -4.65,0.1 -9.32,0.2 -13.96,0.2 -137.72,0 -270.01,-54.7 -367.78,-152.2 -101.07,-100.8 -156.66,-238.8 -153.08,-381.5 l 221.72,-8838.8 c 0,-153.2 125.31,-278.5 278.46,-278.5 H 19335.4 c -0.9,-85 -1.7,-169.2 -2.4,-253.3" /></clipPath><linearGradient
       id="linearGradient172"
       spreadMethod="pad"
       gradientTransform="matrix(-278.15,-12818.2,-12818.2,278.15,14212.6,19009.3)"
       gradientUnits="userSpaceOnUse"
       y2="0"
       x2="1"
       y1="0"
       x1="0"><stop
         id="stop168"
         offset="0"
         style="stop-opacity:1;stop-color:#09005d" /><stop
         id="stop170"
         offset="1"
         style="stop-opacity:1;stop-color:#1a0f91" /></linearGradient><clipPath
       id="clipPath186"
       clipPathUnits="userSpaceOnUse"><path
         id="path184"
         d="M 19327,7995.2 H 4718.99 c -31.09,0 -56.53,25.4 -56.53,56.5 v 690.6 c 0,31.1 25.44,56.6 56.53,56.6 H 6093.03 19333 c -2.5,-274.6 -4.6,-543.8 -6,-803.7" /></clipPath><linearGradient
       id="linearGradient194"
       spreadMethod="pad"
       gradientTransform="matrix(-203.217,-8585.65,-8585.65,203.217,14288.8,18696.3)"
       gradientUnits="userSpaceOnUse"
       y2="0"
       x2="1"
       y1="0"
       x1="0"><stop
         id="stop190"
         offset="0"
         style="stop-opacity:1;stop-color:#09005d" /><stop
         id="stop192"
         offset="1"
         style="stop-opacity:1;stop-color:#1a0f91" /></linearGradient><clipPath
       id="clipPath204"
       clipPathUnits="userSpaceOnUse"><path
         id="path202"
         d="m 22171.9,16797 12.5,832 c -14.7,499.7 -452.8,681.9 -718.4,671.3 l -14908.62,401.3 c -142.7,3.9 -280.67,-50.4 -381.75,-151.3 -101.06,-100.8 -156.64,-243.8 -153.07,-386.5 l 34.17,-1366.8 z" /></clipPath><linearGradient
       id="linearGradient212"
       spreadMethod="pad"
       gradientTransform="matrix(1981.71,24406.6,24406.6,-1981.71,12459.5,-2671.4)"
       gradientUnits="userSpaceOnUse"
       y2="0"
       x2="1"
       y1="0"
       x1="0"><stop
         id="stop208"
         offset="0"
         style="stop-opacity:1;stop-color:#4f52ff" /><stop
         id="stop210"
         offset="1"
         style="stop-opacity:1;stop-color:#4042e2" /></linearGradient><clipPath
       id="clipPath258"
       clipPathUnits="userSpaceOnUse"><path
         id="path256"
         d="m 21503.7,22278.3 c -113.9,0 -219.9,60.4 -278.8,159.8 l -988.6,1666.5 c -92.5,156 -42.6,358.4 111.4,452.1 153.9,93.6 353.8,43.2 446.3,-112.8 l 686.2,-1156.9 907.2,1804.7 c 81.5,162.1 277.4,226.6 437.4,144.1 160.1,-82.6 223.8,-280.9 142.3,-443.1 l -1173.5,-2334.4 c -53.7,-106.8 -160.3,-175.6 -278.5,-179.8 -3.8,-0.1 -7.6,-0.2 -11.4,-0.2 z" /></clipPath><linearGradient
       id="linearGradient266"
       spreadMethod="pad"
       gradientTransform="matrix(0,-5122.29,-5122.29,0,21596.2,32672.9)"
       gradientUnits="userSpaceOnUse"
       y2="0"
       x2="1"
       y1="0"
       x1="0"><stop
         id="stop262"
         offset="0"
         style="stop-opacity:1;stop-color:#febbba" /><stop
         id="stop264"
         offset="1"
         style="stop-opacity:1;stop-color:#ff928e" /></linearGradient><clipPath
       id="clipPath278"
       clipPathUnits="userSpaceOnUse"><path
         id="path276"
         d="m 9704.24,12065.5 c -113.9,0 -219.85,60.4 -278.78,159.7 l -988.55,1666.6 c -92.53,156 -42.68,358.3 111.32,452 153.93,93.7 353.79,43.3 446.32,-112.7 l 686.22,-1156.9 907.13,1804.6 c 81.5,162.2 277.4,226.7 437.5,144.1 160.1,-82.5 223.8,-280.9 142.3,-443 L 9994.16,12245.4 c -53.66,-106.7 -160.32,-175.6 -278.48,-179.7 -3.81,-0.2 -7.63,-0.2 -11.44,-0.2 z" /></clipPath><linearGradient
       id="linearGradient284"
       spreadMethod="pad"
       gradientTransform="matrix(0,-5122.29,-5122.29,0,9796.79,32672.9)"
       gradientUnits="userSpaceOnUse"
       y2="0"
       x2="1"
       y1="0"
       x1="0"><stop
         id="stop280"
         offset="0"
         style="stop-opacity:1;stop-color:#febbba" /><stop
         id="stop282"
         offset="1"
         style="stop-opacity:1;stop-color:#ff928e" /></linearGradient><clipPath
       id="clipPath294"
       clipPathUnits="userSpaceOnUse"><path
         id="path292"
         d="m 9245.7,26165 c 338.86,658.2 969.1,1122.3 1701.2,1205.2 l 50.1,3169.4 c 0.4,27 -21.5,49.3 -48.6,49 -2064.87,-22.3 -3886.87,-1307.5 -4737.19,-3211 -12.37,-27.7 1.3,-60.2 29.66,-71 z" /></clipPath><linearGradient
       id="linearGradient302"
       spreadMethod="pad"
       gradientTransform="matrix(-6924.84,-12737.7,-12737.7,6924.84,12869.2,35283.3)"
       gradientUnits="userSpaceOnUse"
       y2="0"
       x2="1"
       y1="0"
       x1="0"><stop
         id="stop298"
         offset="0"
         style="stop-opacity:1;stop-color:#febbba" /><stop
         id="stop300"
         offset="1"
         style="stop-opacity:1;stop-color:#ff928e" /></linearGradient><clipPath
       id="clipPath312"
       clipPathUnits="userSpaceOnUse"><path
         id="path310"
         d="m 13325.9,24646.5 c -42.4,1.2 -80.4,-25.8 -93,-66.3 -35.5,-113.3 -100.3,-330.7 -110.9,-358.2 -51.6,-133.8 -112.1,-264.2 -182.9,-388.9 -131.4,-231.3 -299.3,-443.2 -506.6,-611 -525.2,-425.3 -1280.2,-504.4 -1910,-293.9 -17.9,6 -35.7,12.5 -53.5,19.1 -32.8,12.3 -69.6,-1.3 -86.4,-32 l -1588.02,-2896 c 771.1,-386.7 1496.72,-487.8 2407.12,-429.5 2645,169.6 4722,2317.2 4952.6,4980.5 z" /></clipPath><linearGradient
       id="linearGradient320"
       spreadMethod="pad"
       gradientTransform="matrix(1363.78,-3384.65,-3384.65,-1363.78,11123,25648.7)"
       gradientUnits="userSpaceOnUse"
       y2="0"
       x2="1"
       y1="0"
       x1="0"><stop
         id="stop316"
         offset="0"
         style="stop-opacity:1;stop-color:#ff928e" /><stop
         id="stop318"
         offset="1"
         style="stop-opacity:1;stop-color:#fe7062" /></linearGradient><clipPath
       id="clipPath330"
       clipPathUnits="userSpaceOnUse"><path
         id="path328"
         d="m 13325.9,24646.5 c -172.2,-1056.8 -953.2,-1882.6 -2014.6,-1918.6 -298.5,-10.1 -654.8,59.2 -916.7,165.3 -27.3,11.1 -58.6,-0.1 -73.4,-25.6 L 8688.96,20059.7 c 771.1,-386.7 1641.84,-576 2552.24,-517.6 2645,169.5 4722,2382.3 4952.6,5045.6 z" /></clipPath><linearGradient
       id="linearGradient338"
       spreadMethod="pad"
       gradientTransform="matrix(-6924.85,-12737.7,-12737.7,6924.85,18186.3,32392.6)"
       gradientUnits="userSpaceOnUse"
       y2="0"
       x2="1"
       y1="0"
       x1="0"><stop
         id="stop334"
         offset="0"
         style="stop-opacity:1;stop-color:#febbba" /><stop
         id="stop336"
         offset="1"
         style="stop-opacity:1;stop-color:#ff928e" /></linearGradient><clipPath
       id="clipPath348"
       clipPathUnits="userSpaceOnUse"><path
         id="path346"
         d="m 8348.74,20503 1580.42,2834.7 c 11.19,20 6.43,45.1 -11.15,59.9 -486.55,409.7 -875.52,959.1 -875.52,1671.5 0,175.7 -77.91,431.5 -42.22,596.3 l -2972.14,1062.8 c -164.99,-536.7 -254.06,-1107.9 -254.06,-1699.7 0,-1913.3 1016.59,-3596 2412.43,-4563.3 54.56,-37.8 129.91,-20.2 162.24,37.8 z" /></clipPath><linearGradient
       id="linearGradient356"
       spreadMethod="pad"
       gradientTransform="matrix(-3285.68,3791.17,3791.17,3285.68,14571.8,16035.2)"
       gradientUnits="userSpaceOnUse"
       y2="0"
       x2="1"
       y1="0"
       x1="0"><stop
         id="stop352"
         offset="0"
         style="stop-opacity:1;stop-color:#ff928e" /><stop
         id="stop354"
         offset="1"
         style="stop-opacity:1;stop-color:#fe7062" /></linearGradient><clipPath
       id="clipPath366"
       clipPathUnits="userSpaceOnUse"><path
         id="path364"
         d="m 8190.71,20583.6 1637.79,2799.6 c 20.8,35.5 13.64,80.9 -17.3,108.1 -469.81,413.2 -768.71,1034.3 -768.71,1735.1 0,175.7 18.97,347 54.66,511.9 l -3024.51,1130.6 c -24.09,9 -50.94,-4.2 -58.29,-28.8 -156.16,-523.5 -240.28,-1079.1 -240.28,-1654.3 0,-1959.8 968.34,-3647.4 2416.64,-4602.2 z" /></clipPath><linearGradient
       id="linearGradient374"
       spreadMethod="pad"
       gradientTransform="matrix(-6924.85,-12737.7,-12737.7,6924.85,13318,35039.2)"
       gradientUnits="userSpaceOnUse"
       y2="0"
       x2="1"
       y1="0"
       x1="0"><stop
         id="stop370"
         offset="0"
         style="stop-opacity:1;stop-color:#febbba" /><stop
         id="stop372"
         offset="1"
         style="stop-opacity:1;stop-color:#ff928e" /></linearGradient><clipPath
       id="clipPath384"
       clipPathUnits="userSpaceOnUse"><path
         id="path382"
         d="m 11526.3,27355.1 c 937.5,-156.8 1664.5,-946.2 1787.6,-1932.6 6.6,-52.8 50.2,-93.1 103.3,-94.9 l 4534.2,-151.9 c 14.1,13.6 21.5,20.8 35.6,34.5 -13.9,3793.1 -2733.7,7042.7 -6377,7472.9 z" /></clipPath><linearGradient
       id="linearGradient392"
       spreadMethod="pad"
       gradientTransform="matrix(9000.95,-8257.08,-8257.08,-9000.95,11183.5,31096.5)"
       gradientUnits="userSpaceOnUse"
       y2="0"
       x2="1"
       y1="0"
       x1="0"><stop
         id="stop388"
         offset="0"
         style="stop-opacity:1;stop-color:#e1473d" /><stop
         id="stop390"
         offset="1"
         style="stop-opacity:1;stop-color:#e9605a" /></linearGradient><clipPath
       id="clipPath402"
       clipPathUnits="userSpaceOnUse"><path
         id="path400"
         d="m 11943.3,6235.2 c 4.1,1.6 2183.7,3818.5 2478.2,4177.7 49.5,60.4 126.2,91.2 203.8,81.9 l 608.4,-72.5 714.6,-1546.1 -1190.6,693.4 C 14875.5,8754.8 13346,7543.9 12821.4,7102 c -53.2,-44.8 -57.6,-125.1 -9.5,-175.4 l 209.4,-219.3 C 12677.5,6358.8 12280.7,6135 11833,6031.5 Z" /></clipPath><linearGradient
       id="linearGradient408"
       spreadMethod="pad"
       gradientTransform="matrix(3436.23,-1961.35,1961.35,3436.23,11420.9,9432.7)"
       gradientUnits="userSpaceOnUse"
       y2="0"
       x2="1"
       y1="0"
       x1="0"><stop
         id="stop404"
         offset="0"
         style="stop-opacity:1;stop-color:#febbba" /><stop
         id="stop406"
         offset="1"
         style="stop-opacity:1;stop-color:#ff928e" /></linearGradient><clipPath
       id="clipPath418"
       clipPathUnits="userSpaceOnUse"><path
         id="path416"
         d="m 12900.2,6825.6 c 0,0 133.6,-43.1 178.9,-162.2 21.6,-56.9 -1.7,-121.4 -51.2,-156.9 -220.1,-157.7 -946.1,-666.8 -1281.1,-766.5 -27.5,-8.1 -53.6,16.7 -47.4,44.7 17.2,77.8 72.8,233.2 251.9,460.7 l -16,-32.5 c -20.4,-41.1 24.4,-84 64.4,-61.4 224.1,126.5 680.5,403.3 900.5,674.1 z" /></clipPath><linearGradient
       id="linearGradient424"
       spreadMethod="pad"
       gradientTransform="matrix(1547.81,-3746.12,-3746.12,-1547.81,11870.1,7471.6)"
       gradientUnits="userSpaceOnUse"
       y2="0"
       x2="1"
       y1="0"
       x1="0"><stop
         id="stop420"
         offset="0"
         style="stop-opacity:1;stop-color:#4f52ff" /><stop
         id="stop422"
         offset="1"
         style="stop-opacity:1;stop-color:#4042e2" /></linearGradient><clipPath
       id="clipPath434"
       clipPathUnits="userSpaceOnUse"><path
         id="path432"
         d="m 12792.3,5298.4 c 3.7,2.4 330.7,790.2 334.3,792.5 299.8,1825.5 1031.4,3388.9 1247.1,3800.3 36.3,69.2 105.2,114.8 183,121.5 l 610.5,52.1 1012.8,-1369.5 -1306.4,438.1 c 280.3,-774.1 -972.5,-2269.5 -1396.8,-2808.4 -43.1,-54.7 -31.1,-134.2 26.1,-173.8 l 249.5,-172.3 c -266.2,-410.9 -609.4,-710.3 -1027,-902.3 z" /></clipPath><linearGradient
       id="linearGradient440"
       spreadMethod="pad"
       gradientTransform="matrix(-11757.1,7360.11,-7360.11,-11757.1,11753.3,8943.5)"
       gradientUnits="userSpaceOnUse"
       y2="0"
       x2="1"
       y1="0"
       x1="0"><stop
         id="stop436"
         offset="0"
         style="stop-opacity:1;stop-color:#febbba" /><stop
         id="stop438"
         offset="1"
         style="stop-opacity:1;stop-color:#ff928e" /></linearGradient><clipPath
       id="clipPath450"
       clipPathUnits="userSpaceOnUse"><path
         id="path448"
         d="m 13609.8,6070.3 c 0,0 139.7,-15.3 208.1,-122.7 32.7,-51.4 22.9,-119.3 -18.4,-164.1 -183.7,-198.9 -791.6,-844.4 -1099.5,-1009.8 -25.2,-13.6 -55.8,5.5 -55.4,34.1 1,79.7 24,243.2 153.5,502.2 l -9.2,-35.1 c -11.6,-44.4 40.9,-77.3 75.5,-47.1 193.9,169.3 584.8,532.7 745.4,842.5 z" /></clipPath><linearGradient
       id="linearGradient456"
       spreadMethod="pad"
       gradientTransform="matrix(2273.84,-3354.97,-3354.97,-2273.84,12470.4,6494.2)"
       gradientUnits="userSpaceOnUse"
       y2="0"
       x2="1"
       y1="0"
       x1="0"><stop
         id="stop452"
         offset="0"
         style="stop-opacity:1;stop-color:#4f52ff" /><stop
         id="stop454"
         offset="1"
         style="stop-opacity:1;stop-color:#4042e2" /></linearGradient><clipPath
       id="clipPath466"
       clipPathUnits="userSpaceOnUse"><path
         id="path464"
         d="m 18024.5,10353.2 c 0,0 552.2,-821.4 597.6,-1196 45.3,-374.7 -152.7,-504.3 -730.7,-552 -1720,-142.2 -2567.9,373.3 -2567.9,373.3 -117.7,750.2 -201.4,941 -1184.1,1348.9 0,0 1242.9,-98.7 1493.1,-1.6 250.1,97.1 2392,27.4 2392,27.4 z" /></clipPath><linearGradient
       id="linearGradient474"
       spreadMethod="pad"
       gradientTransform="matrix(2826.17,-3097.17,3097.17,2826.17,14639.6,11895.3)"
       gradientUnits="userSpaceOnUse"
       y2="0"
       x2="1"
       y1="0"
       x1="0"><stop
         id="stop470"
         offset="0"
         style="stop-opacity:1;stop-color:#e1473d" /><stop
         id="stop472"
         offset="1"
         style="stop-opacity:1;stop-color:#e9605a" /></linearGradient><clipPath
       id="clipPath484"
       clipPathUnits="userSpaceOnUse"><path
         id="path482"
         d="m 15822.5,14955 c 0,0 384.6,455 793.5,-103.3 74,-101.1 358.5,-17.7 462.8,-229.4 53.8,-109.3 170.1,-171.3 289.9,-149.2 298.4,55 786.1,59.6 1026.9,-407.9 183.8,-356.9 41.9,-565.8 -141.9,-684.9 -134.9,-87.5 -183.1,-265 -101.5,-403.6 78.3,-132.9 93,-312.9 -109.1,-529.5 -452.9,-485.4 -1349.4,308.1 -1349.4,308.1 l -711.8,1682 z" /></clipPath><linearGradient
       id="linearGradient492"
       spreadMethod="pad"
       gradientTransform="matrix(1494.03,-1724.78,-1724.78,-1494.03,15233.6,16097)"
       gradientUnits="userSpaceOnUse"
       y2="0"
       x2="1"
       y1="0"
       x1="0"><stop
         id="stop488"
         offset="0"
         style="stop-opacity:1;stop-color:#09005d" /><stop
         id="stop490"
         offset="1"
         style="stop-opacity:1;stop-color:#1a0f91" /></linearGradient><clipPath
       id="clipPath502"
       clipPathUnits="userSpaceOnUse"><path
         id="path500"
         d="m 16531.1,10461.9 c 0,0 -643.1,612.4 -959.6,1017.9 -171.1,219.3 -224.8,507.9 -145.7,774.5 144.5,486.9 401.3,991.1 424.8,1069.6 35.9,120.3 756.9,115.3 756.9,115.3 0,0 1418.9,-920.8 1976.3,-2480.7 l -626,-194.9 c 0,0 -370.5,621.5 -736.5,1016.7 0,0 633.3,-836.7 655.6,-1179.3 z" /></clipPath><linearGradient
       id="linearGradient510"
       spreadMethod="pad"
       gradientTransform="matrix(-741.386,-1415.37,-1415.37,741.386,19362.5,16237.4)"
       gradientUnits="userSpaceOnUse"
       y2="0"
       x2="1"
       y1="0"
       x1="0"><stop
         id="stop506"
         offset="0"
         style="stop-opacity:1;stop-color:#ff928e" /><stop
         id="stop508"
         offset="1"
         style="stop-opacity:1;stop-color:#fe7062" /></linearGradient><clipPath
       id="clipPath520"
       clipPathUnits="userSpaceOnUse"><path
         id="path518"
         d="m 15305.9,10220.3 483.2,525.7 558,-150.2 c 0,0 650.6,-100.8 1022.9,0 372.4,100.8 372.4,100.8 372.4,100.8 l 841.4,261.9 132.2,-373.5 c 33.6,-94.8 -0.2,-200.1 -82.2,-258.3 -72.7,-51.8 -158.1,-108.6 -212.5,-132.4 -110.8,-48.5 -2552.6,-15.3 -2552.6,-15.3 z" /></clipPath><linearGradient
       id="linearGradient528"
       spreadMethod="pad"
       gradientTransform="matrix(3423,0,0,-3423,17439.3,10563.2)"
       gradientUnits="userSpaceOnUse"
       y2="0"
       x2="1"
       y1="0"
       x1="0"><stop
         id="stop524"
         offset="0"
         style="stop-opacity:1;stop-color:#febbba" /><stop
         id="stop526"
         offset="1"
         style="stop-opacity:1;stop-color:#ff928e" /></linearGradient><clipPath
       id="clipPath538"
       clipPathUnits="userSpaceOnUse"><path
         id="path536"
         d="m 16112,14306.2 484.6,-901.2 c -32,-196.7 -527.5,-202.2 -604,-84.8 -7.8,12 -12.3,25.8 -15.2,39.8 l -289.9,602.1 c -12.5,58.7 148.5,256.5 201.5,284.7 l 192.6,102.6 c 74.2,39.4 -235.3,42.6 30.4,-43.2 z" /></clipPath><linearGradient
       id="linearGradient546"
       spreadMethod="pad"
       gradientTransform="matrix(79.1238,1232.96,1232.96,-79.1238,16046.2,12199.2)"
       gradientUnits="userSpaceOnUse"
       y2="0"
       x2="1"
       y1="0"
       x1="0"><stop
         id="stop542"
         offset="0"
         style="stop-opacity:1;stop-color:#febbba" /><stop
         id="stop544"
         offset="1"
         style="stop-opacity:1;stop-color:#ff928e" /></linearGradient><clipPath
       id="clipPath556"
       clipPathUnits="userSpaceOnUse"><path
         id="path554"
         d="m 15131.2,14517.7 c 0,0 -54.7,-304.5 184.6,-691.6 239.3,-387.1 477.6,-369.6 598.6,-231.6 121.1,138.1 266.1,368 200.1,754.1 -66,386.1 -900.7,557.3 -983.3,169.1 z" /></clipPath><linearGradient
       id="linearGradient562"
       spreadMethod="pad"
       gradientTransform="matrix(-1489.46,2850.48,2850.48,1489.46,16162.7,13242.4)"
       gradientUnits="userSpaceOnUse"
       y2="0"
       x2="1"
       y1="0"
       x1="0"><stop
         id="stop558"
         offset="0"
         style="stop-opacity:1;stop-color:#febbba" /><stop
         id="stop560"
         offset="1"
         style="stop-opacity:1;stop-color:#ff928e" /></linearGradient><clipPath
       id="clipPath572"
       clipPathUnits="userSpaceOnUse"><path
         id="path570"
         d="m 15824.8,14306.6 c 0,0 -387.4,509 -684.9,65.3 l 5,-153.2 c 0,0 -386.9,18 -344.9,374.6 41.9,356.6 357.8,600.1 795.6,478.3 437.9,-121.8 693.7,-260.5 743.1,-564.5 49.5,-304 -198.7,-254.4 -198.7,-254.4 0,0 -94.9,209.8 -209.3,224.1 -114.5,14.3 -73.2,-151.6 -73.2,-151.6 z" /></clipPath><linearGradient
       id="linearGradient580"
       spreadMethod="pad"
       gradientTransform="matrix(2085.69,-418.475,-418.475,-2085.69,14301.6,14859)"
       gradientUnits="userSpaceOnUse"
       y2="0"
       x2="1"
       y1="0"
       x1="0"><stop
         id="stop576"
         offset="0"
         style="stop-opacity:1;stop-color:#09005d" /><stop
         id="stop578"
         offset="1"
         style="stop-opacity:1;stop-color:#1a0f91" /></linearGradient><clipPath
       id="clipPath590"
       clipPathUnits="userSpaceOnUse"><path
         id="path588"
         d="m 15913.8,14320.2 c 0,0 -200.8,260.5 -18.1,314.5 182.8,54.1 175.9,-255.2 164,-370.2 z" /></clipPath><linearGradient
       id="linearGradient596"
       spreadMethod="pad"
       gradientTransform="matrix(-1489.45,2850.46,2850.46,1489.45,16503.6,13420.6)"
       gradientUnits="userSpaceOnUse"
       y2="0"
       x2="1"
       y1="0"
       x1="0"><stop
         id="stop592"
         offset="0"
         style="stop-opacity:1;stop-color:#febbba" /><stop
         id="stop594"
         offset="1"
         style="stop-opacity:1;stop-color:#ff928e" /></linearGradient><clipPath
       id="clipPath606"
       clipPathUnits="userSpaceOnUse"><path
         id="path604"
         d="m 16905.3,10012.2 c -1.7,-0.1 -3.4,-0.1 -5.1,-0.1 l -2222.5,2.4 c -54.9,0.1 -99.4,44.7 -99.4,99.6 0.1,55 44.8,100.4 99.6,99.4 l 2222.5,-2.4 c 55,-0.1 99.5,-44.7 99.4,-99.6 -0.1,-53.2 -41.9,-96.7 -94.5,-99.3 z" /></clipPath><linearGradient
       id="linearGradient614"
       spreadMethod="pad"
       gradientTransform="matrix(-1764.28,-578.647,-578.647,1764.28,17282.4,10602.7)"
       gradientUnits="userSpaceOnUse"
       y2="0"
       x2="1"
       y1="0"
       x1="0"><stop
         id="stop610"
         offset="0"
         style="stop-opacity:1;stop-color:#09005d" /><stop
         id="stop612"
         offset="1"
         style="stop-opacity:1;stop-color:#1a0f91" /></linearGradient><clipPath
       id="clipPath624"
       clipPathUnits="userSpaceOnUse"><path
         id="path622"
         d="m 12679.8,12030.1 h 1850.9 c 136.5,0 260.8,-78.8 319.1,-202.3 l 855.6,-1814.4 h -2300.2 c -87.9,0 -167,53.8 -199.4,135.6 l -663.5,1679 c -38.3,97 33.2,202.1 137.5,202.1 z" /></clipPath><linearGradient
       id="linearGradient630"
       spreadMethod="pad"
       gradientTransform="matrix(16105.2,1355.01,1355.01,-16105.2,12634.9,10891)"
       gradientUnits="userSpaceOnUse"
       y2="0"
       x2="1"
       y1="0"
       x1="0"><stop
         id="stop626"
         offset="0"
         style="stop-opacity:1;stop-color:#09005d" /><stop
         id="stop628"
         offset="1"
         style="stop-opacity:1;stop-color:#1a0f91" /></linearGradient><clipPath
       id="clipPath640"
       clipPathUnits="userSpaceOnUse"><path
         id="path638"
         d="m 13983.8,11099.8 c 40.1,-124.6 10.4,-245.6 -66.2,-270.3 -76.7,-24.7 -171.3,56.3 -211.4,181 -40.2,124.6 -10.5,245.6 66.1,270.3 76.7,24.6 171.4,-56.4 211.5,-181 z" /></clipPath><linearGradient
       id="linearGradient646"
       spreadMethod="pad"
       gradientTransform="matrix(-1891.2,-4655.27,-4655.27,1891.2,15341.6,14739.2)"
       gradientUnits="userSpaceOnUse"
       y2="0"
       x2="1"
       y1="0"
       x1="0"><stop
         id="stop642"
         offset="0"
         style="stop-opacity:1;stop-color:#4f52ff" /><stop
         id="stop644"
         offset="1"
         style="stop-opacity:1;stop-color:#4042e2" /></linearGradient><clipPath
       id="clipPath656"
       clipPathUnits="userSpaceOnUse"><path
         id="path654"
         d="m 25748.1,6799.1 c 1.3,93.6 2.7,190.8 4,291 49.5,-54.2 99.7,-108.3 150.6,-162.4 -51.5,-44 -103,-86.8 -154.6,-128.6 m 937.2,911.7 c 494.3,1440.3 1003.7,4141.1 -511.1,7175.2 -309.5,619.9 -578.5,1188.4 -812.4,1708.2 19.8,533 83.3,1033.6 180.2,1502.1 556.4,2689.8 2214.1,4321.9 3030.1,4983.6 31.4,25.5 68.5,36.7 104.8,36.7 89.9,0 174.4,-68.8 153.2,-159.3 -221.6,-943.4 91.5,-2738.6 255.7,-4901.3 74.3,-978.6 118.1,-2032 68,-3116.1 -8.5,-183.9 -19.7,-369.1 -33.9,-554.6 -8.3,-109.3 -17.7,-218.6 -28.3,-328.3 -2.1,-22.3 -4.3,-44.4 -6.5,-66.7 -31,-310.2 -71,-621.9 -121.3,-933.9 -267.9,-1658.9 -829.6,-3328.6 -1899.8,-4855.9 -121.1,-172.8 -247.9,-336 -378.7,-489.7" /></clipPath><linearGradient
       id="linearGradient664"
       spreadMethod="pad"
       gradientTransform="matrix(6081.37,0,0,-6081.37,23093.9,14255.3)"
       gradientUnits="userSpaceOnUse"
       y2="0"
       x2="1"
       y1="0"
       x1="0"><stop
         id="stop660"
         offset="0"
         style="stop-opacity:1;stop-color:#4f52ff" /><stop
         id="stop662"
         offset="1"
         style="stop-opacity:1;stop-color:#4042e2" /></linearGradient><clipPath
       id="clipPath686"
       clipPathUnits="userSpaceOnUse"><path
         id="path684"
         d="m 23672.3,5277 c -267.3,0 -545,1.6 -824.4,4.4 -1310.8,12.8 -2662.1,51 -3184.3,71 -177.4,6.8 -319.6,173.4 -325.2,380.9 -14.4,537.1 -16.6,1342.6 -11.4,2261.9 1.4,259.9 3.5,529.1 6,803.7 0.7,84.1 1.5,168.3 2.4,253.3 1.2,119.8 2.5,240.9 3.8,362.1 9.8,871.1 23.3,1770.8 37.2,2596.1 3.2,189.7 6.5,375.8 9.7,556.3 17.1,965.5 33.8,1781.4 43.9,2254.9 5.5,262 180.7,476.2 404.3,493.2 176.9,13.4 394.4,19.4 640,19.4 369.2,0 801.9,-13.5 1256,-35.1 50.6,-2.4 101.4,-4.9 152.4,-7.5 27.1,-1.4 54.3,-2.8 81.5,-4.3 61.3,-3.2 123,-6.6 184.7,-10 94.7,-5.4 189.3,-11 284.4,-16.8 1157.5,-71.3 2315.9,-177 2825.9,-236.7 221.6,-26 395.8,-232.7 414.5,-492.4 128.9,-1786.4 106.9,-5314.7 78.4,-7441.3 -1.3,-100.2 -2.7,-197.4 -4,-291 -2.4,-168.9 -4.9,-326.7 -7.2,-471.3 -2.3,-137.8 -4.4,-263.6 -6.4,-375.9 -6.2,-349.9 -243.9,-633.1 -542.8,-647.7 -398.5,-19.6 -934.2,-27.2 -1519.4,-27.2 m -3033.9,9480.4 c -180.3,0 -338,-3.7 -465.4,-11.8 -191.3,-12.2 -343.4,-191.8 -351.6,-415.7 -47.2,-1293.3 -196.2,-5596 -148.9,-7187.1 6.9,-232.5 163.6,-420.6 362.1,-434.2 577.4,-39.5 2138.4,-112.7 3428,-112.7 536.5,0 1025.8,12.7 1378.1,45.7 215.9,20.2 385.4,224.5 397.1,477.6 60.7,1319.5 235.2,5325.9 189.9,6899.1 -7.2,251 -173.4,455.9 -387.2,478.4 -773.9,81.3 -3140,260.7 -4402.1,260.7 m 1169.6,372.4 c -46.7,0 -91.8,-0.8 -134.3,-2.6 -42.4,-1.8 -75.7,-42.8 -75.7,-92.4 0,-49.2 32.8,-89.7 74.7,-92.3 207.3,-12.7 790.9,-48.6 1051.8,-66.3 1.6,-0.1 3.2,-0.2 4.7,-0.2 49.2,0 86.8,52.6 77.4,110 l -1.7,10.1 c -6.7,40.3 -35.3,70.7 -70.3,74.5 -155.1,16.6 -585.3,59.2 -926.6,59.2" /></clipPath><linearGradient
       id="linearGradient694"
       spreadMethod="pad"
       gradientTransform="matrix(6449.49,0,0,-6449.49,19324.5,10305.6)"
       gradientUnits="userSpaceOnUse"
       y2="0"
       x2="1"
       y1="0"
       x1="0"><stop
         id="stop690"
         offset="0"
         style="stop-opacity:1;stop-color:#09005d" /><stop
         id="stop692"
         offset="1"
         style="stop-opacity:1;stop-color:#1a0f91" /></linearGradient><clipPath
       id="clipPath708"
       clipPathUnits="userSpaceOnUse"><path
         id="path706"
         d="m 22729.2,14876 c -1.5,0 -3.1,0.1 -4.7,0.2 -260.9,17.7 -844.5,53.6 -1051.8,66.3 -41.9,2.6 -74.7,43.1 -74.7,92.3 0,49.6 33.3,90.6 75.7,92.4 42.5,1.8 87.6,2.6 134.3,2.6 341.3,0 771.5,-42.6 926.6,-59.2 35,-3.8 63.6,-34.2 70.3,-74.5 l 1.7,-10.1 c 9.4,-57.4 -28.2,-110 -77.4,-110" /></clipPath><linearGradient
       id="linearGradient716"
       spreadMethod="pad"
       gradientTransform="matrix(6449.49,0,0,-6449.49,19324.5,10305.6)"
       gradientUnits="userSpaceOnUse"
       y2="0"
       x2="1"
       y1="0"
       x1="0"><stop
         id="stop712"
         offset="0"
         style="stop-opacity:1;stop-color:#8480ae" /><stop
         id="stop714"
         offset="1"
         style="stop-opacity:1;stop-color:#8d87c8" /></linearGradient><clipPath
       id="clipPath726"
       clipPathUnits="userSpaceOnUse"><path
         id="path724"
         d="m 25434.8,13528.8 -5637.1,127.7 c 11.1,312.9 16.4,471 23.7,671.6 8.2,223.9 160.3,404.9 351.6,417.1 127.2,8.1 284.5,11.8 464.5,11.8 1261.9,0 3628.9,-179.8 4403,-261.1 213.8,-22.5 380,-228.3 387.2,-479.2 4.1,-143.2 6.4,-314.1 7.1,-487.9 m -4143.2,639.7 c -86.4,0 -156.5,-70 -156.5,-156.4 0,-86.4 70.1,-156.5 156.5,-156.5 86.4,0 156.4,70.1 156.4,156.5 0,86.4 -70,156.4 -156.4,156.4 m -486.8,29 c -86.4,0 -156.4,-70 -156.4,-156.4 0,-86.5 70,-156.5 156.4,-156.5 86.4,0 156.5,70 156.5,156.5 0,86.4 -70.1,156.4 -156.5,156.4 m -521.5,15.1 c -86.4,0 -156.5,-70.1 -156.5,-156.5 0,-86.4 70.1,-156.4 156.5,-156.4 86.4,0 156.4,70 156.4,156.4 0,86.4 -70,156.5 -156.4,156.5" /></clipPath><linearGradient
       id="linearGradient734"
       spreadMethod="pad"
       gradientTransform="matrix(695.389,10291.7,10291.7,-695.389,22068.7,5650.9)"
       gradientUnits="userSpaceOnUse"
       y2="0"
       x2="1"
       y1="0"
       x1="0"><stop
         id="stop730"
         offset="0"
         style="stop-opacity:1;stop-color:#4f52ff" /><stop
         id="stop732"
         offset="1"
         style="stop-opacity:1;stop-color:#4042e2" /></linearGradient><clipPath
       id="clipPath760"
       clipPathUnits="userSpaceOnUse"><path
         id="path758"
         d="m 20283.3,13899.7 c -86.4,0 -156.5,70 -156.5,156.4 0,86.4 70.1,156.5 156.5,156.5 86.4,0 156.4,-70.1 156.4,-156.5 0,-86.4 -70,-156.4 -156.4,-156.4" /></clipPath><linearGradient
       id="linearGradient768"
       spreadMethod="pad"
       gradientTransform="matrix(695.389,10291.7,10291.7,-695.389,22068.7,5650.9)"
       gradientUnits="userSpaceOnUse"
       y2="0"
       x2="1"
       y1="0"
       x1="0"><stop
         id="stop764"
         offset="0"
         style="stop-opacity:1;stop-color:#d1d2ff" /><stop
         id="stop766"
         offset="1"
         style="stop-opacity:1;stop-color:#cecef7" /></linearGradient><clipPath
       id="clipPath778"
       clipPathUnits="userSpaceOnUse"><path
         id="path776"
         d="m 20804.8,13884.6 c -86.4,0 -156.4,70 -156.4,156.5 0,86.4 70,156.4 156.4,156.4 86.4,0 156.5,-70 156.5,-156.4 0,-86.5 -70.1,-156.5 -156.5,-156.5" /></clipPath><linearGradient
       id="linearGradient786"
       spreadMethod="pad"
       gradientTransform="matrix(695.389,10291.7,10291.7,-695.389,22068.7,5650.9)"
       gradientUnits="userSpaceOnUse"
       y2="0"
       x2="1"
       y1="0"
       x1="0"><stop
         id="stop782"
         offset="0"
         style="stop-opacity:1;stop-color:#d1d2ff" /><stop
         id="stop784"
         offset="1"
         style="stop-opacity:1;stop-color:#cecef7" /></linearGradient><clipPath
       id="clipPath796"
       clipPathUnits="userSpaceOnUse"><path
         id="path794"
         d="m 21291.6,13855.6 c -86.4,0 -156.5,70.1 -156.5,156.5 0,86.4 70.1,156.4 156.5,156.4 86.4,0 156.4,-70 156.4,-156.4 0,-86.4 -70,-156.5 -156.4,-156.5" /></clipPath><linearGradient
       id="linearGradient804"
       spreadMethod="pad"
       gradientTransform="matrix(695.389,10291.7,10291.7,-695.389,22068.7,5650.9)"
       gradientUnits="userSpaceOnUse"
       y2="0"
       x2="1"
       y1="0"
       x1="0"><stop
         id="stop800"
         offset="0"
         style="stop-opacity:1;stop-color:#d1d2ff" /><stop
         id="stop802"
         offset="1"
         style="stop-opacity:1;stop-color:#cecef7" /></linearGradient><clipPath
       id="clipPath818"
       clipPathUnits="userSpaceOnUse"><path
         id="path816"
         d="m 22703.1,9961 c -88.1,0 -170.1,46.8 -215.7,123.6 l -764.9,1289.6 c -71.6,120.7 -33,277.3 86.1,349.8 119.1,72.5 273.8,33.5 345.4,-87.2 l 531,-895.2 702,1396.4 c 63,125.5 214.6,175.4 338.5,111.5 123.8,-63.8 173.2,-217.3 110.1,-342.8 l -908.1,-1806.4 c -41.5,-82.6 -124.1,-135.9 -215.5,-139.1 -3,-0.1 -5.9,-0.2 -8.9,-0.2 z" /></clipPath><linearGradient
       id="linearGradient826"
       spreadMethod="pad"
       gradientTransform="matrix(0,-5122.3,-5122.3,0,22774.8,32672.9)"
       gradientUnits="userSpaceOnUse"
       y2="0"
       x2="1"
       y1="0"
       x1="0"><stop
         id="stop822"
         offset="0"
         style="stop-opacity:1;stop-color:#febbba" /><stop
         id="stop824"
         offset="1"
         style="stop-opacity:1;stop-color:#ff928e" /></linearGradient></defs><g
     transform="matrix(1.3333333,0,0,-1.3333333,0,4946.6667)"
     id="g10"><g
       transform="scale(0.1)"
       id="g12"><g
         transform="scale(2.27607)"
         id="g14"><path
           id="path16"
           style="fill:#ffffff;fill-opacity:1;fill-rule:nonzero;stroke:none"
           d="M 16300,0 H 0 V 16300 H 16300 V 0" /></g><g
         id="g18"><g
           clip-path="url(#clipPath24)"
           id="g20"><g
             transform="scale(2.0051)"
             id="g26"><path
               id="path34"
               style="fill:url(#linearGradient32);fill-opacity:1;fill-rule:nonzero;stroke:none"
               d="m 9427.87,2403.87 c -838.81,0 -1479.58,117.26 -1735.13,169.17 -774.67,157.35 -2153.31,437.29 -3341.46,1414.4 h 5287.65 c -2.59,-458.48 -1.49,-860.21 5.69,-1128.08 2.79,-103.48 73.71,-186.57 162.19,-189.96 260.39,-9.98 934.39,-29.03 1588.09,-35.41 -709,-173.76 -1385.5,-230.12 -1967.03,-230.12 m 3409.83,751.99 c 1.2,72.11 2.4,150.81 3.6,235.05 25.8,20.85 51.4,42.19 77.1,64.13 1.6,-1.69 3.2,-3.34 4.8,-5.08 29.9,-31.77 69.2,-46.78 108.1,-46.78 56.2,0 111.8,31.27 137.7,88.67 40.8,89.92 90.1,209.07 139.7,353.75 65.3,76.65 128.5,158.05 188.9,244.23 533.7,761.71 813.9,1594.43 947.5,2421.77 156.8,-0.64 304.8,-0.94 442.7,-0.94 271.4,0 503.3,1.24 686.9,3.94 65.3,0.99 128.1,12.42 186.7,32.76 -274.1,-864.49 -690.8,-1624.46 -1226.9,-2188.87 -284,-298.99 -552.8,-491.79 -765.1,-644.16 -305.4,-219.14 -617.7,-403.62 -931.7,-558.47 M 2939.29,5781.17 c -1099.18,2246.07 -683.8,5166.13 605.38,7198.83 278.03,438.4 1746.69,2871.5 4731.69,3261.7 296.29,38.7 600.87,58.3 909.38,58.3 1572.46,0 3253.06,-508 4527.86,-1576.1 517.4,-433.4 945,-938.1 1289.6,-1489.6 -1961.2,54.9 -7110.61,169.8 -9480.08,169.8 -318.38,0 -586.24,-2.1 -789.76,-6.6 -320.04,-7.2 -575.59,-268.6 -575.59,-588.7 V 9477.9 l -917.92,23.74 c -3.2,0.09 -6.41,0.14 -9.6,0.14 -97.88,0 -191.92,-38.75 -261.39,-108.02 -71.74,-71.52 -110.99,-169.27 -108.59,-270.46 l 79.02,-3342.13" /></g></g></g><g
         id="g36"><g
           clip-path="url(#clipPath42)"
           id="g38"><g
             transform="scale(1.46829)"
             id="g44"><path
               id="path52"
               style="fill:url(#linearGradient50);fill-opacity:1;fill-rule:nonzero;stroke:none"
               d="m 12642.5,9647.56 -345,-3094.01 H 16300 l -521.4,3094.01 h -3136.1" /></g></g></g><g
         id="g54"><g
           clip-path="url(#clipPath60)"
           id="g56"><g
             transform="scale(1.99239)"
             id="g62"><path
               id="path70"
               style="fill:url(#linearGradient68);fill-opacity:1;fill-rule:nonzero;stroke:none"
               d="m 14982.7,6552.17 c -138.8,0 -287.7,0.3 -445.5,0.96 25.2,156.59 45.3,313.04 60.9,468.73 l 1351.8,-23.04 h 0.3 c 9.1,0 16.6,7.33 16.7,16.46 0.2,9.24 -7.1,16.87 -16.4,17.07 l -1349.2,22.99 c 5.4,55.06 10.1,109.91 14.2,164.77 l 789.7,-9.73 c 2.4,-0.05 4.8,-0.05 7.1,-0.05 252.6,-0.05 458.5,204.37 459.5,457.94 l 17.4,5059.63 c 0,0.4 0,0.7 0,1.1 0.1,182.5 -145.4,331.8 -328,336.2 l -10666.64,215.5 c -3.03,0.1 -6.04,0.2 -9.05,0.2 -200.47,0 -364.05,-162.7 -364.05,-364.3 v -3387 l -337.18,8.73 v 3352.07 c 0,322.2 257.18,585.3 579.26,592.5 204.82,4.6 474.38,6.7 794.8,6.7 2384.57,0 7566.76,-115.6 9540.56,-170.9 179,-5.1 331.7,-9.6 453.5,-13.5 296.8,-9.5 544.6,-229 590.2,-522.4 216.5,-1393.7 158,-4395.55 122,-5643.94 -7.4,-255.33 -173.5,-470.14 -402.7,-549.75 -59,-20.47 -122.2,-31.97 -187.9,-32.97 -184.8,-2.71 -418.2,-3.97 -691.3,-3.97" /></g></g></g><g
         id="g72"><g
           clip-path="url(#clipPath78)"
           id="g74"><g
             transform="scale(1.94221)"
             id="g80"><path
               id="path88"
               style="fill:url(#linearGradient86);fill-opacity:1;fill-rule:nonzero;stroke:none"
               d="M 4638.29,13250.4 V 8013.15 c 0,-264.75 212.53,-480.49 477.26,-484.45 L 15803.3,7396.68 c 262.5,-3.91 477.6,207.24 478.6,469.73 l 17.8,5190.39 c 0.8,187.7 -148.8,341.5 -336.4,346 l -10942.27,221.1 c -209.86,5.1 -382.74,-163.6 -382.74,-373.5" /></g></g></g><g
         transform="scale(1.95171)"
         id="g90"><path
           id="path92"
           style="fill:#7d97f4;fill-opacity:1;fill-rule:nonzero;stroke:none"
           d="m 16282.7,7144.72 h -0.3 L 4615.43,7343.53 c -9.43,0.15 -16.96,7.94 -16.8,17.37 0.15,9.42 7.85,16.9 17.38,16.8 L 16283,7178.95 c 9.5,-0.2 17,-7.99 16.8,-17.42 -0.2,-9.32 -7.8,-16.81 -17.1,-16.81" /></g><g
         id="g94"><g
           clip-path="url(#clipPath100)"
           id="g96"><g
             transform="scale(1.56877)"
             id="g102"><path
               id="path110"
               style="fill:url(#linearGradient108);fill-opacity:1;fill-rule:nonzero;stroke:none"
               d="m 16062.9,5541.27 h -5482.7 c -149,0 -260.9,106.01 -232,219.92 l 70.3,278.24 c 21.2,83.7 113.2,145.09 222.6,148.53 l 5285.4,164.9 c 114.3,3.57 215.4,-57.05 240.3,-143.99 l 126.8,-443.22 c 33,-115.12 -79.4,-224.38 -230.7,-224.38" /></g></g></g><g
         transform="scale(1.94226)"
         id="g112"><path
           id="path114"
           style="fill:#91b3fa;fill-opacity:1;fill-rule:nonzero;stroke:none"
           d="M 4638.15,13250 V 8012.92 c 0,-264.74 212.53,-480.47 477.25,-484.44 l 10687.4,-132.01 c 262.5,-3.91 477.6,207.24 478.6,469.71 l 17.9,5190.22 c 0.7,187.7 -148.8,341.5 -336.4,346.1 l -10942.02,221 c -209.85,5.1 -382.73,-163.6 -382.73,-373.5" /></g><g
         id="g116"><g
           clip-path="url(#clipPath122)"
           id="g118"><g
             transform="scale(1.94221)"
             id="g124"><path
               id="path132"
               style="fill:url(#linearGradient130);fill-opacity:1;fill-rule:nonzero;stroke:none"
               d="m 16297.7,12449.7 2,608.2 c 0.8,187.7 -148.8,340.9 -336.4,345.5 l -10939.48,220.8 c -209.86,5.1 -379.94,-163.9 -379.94,-373.8 v -800.7 H 16297.7" /></g></g></g><g
         transform="scale(1.55341)"
         id="g134"><path
           id="path136"
           style="fill:#91b3fa;fill-opacity:1;fill-rule:nonzero;stroke:none"
           d="m 6835.73,16143.3 c 0,-86.5 -70.17,-156.6 -156.69,-156.6 -86.52,0 -156.62,70.1 -156.62,156.6 0,86.5 70.1,156.7 156.62,156.7 86.52,0 156.69,-70.2 156.69,-156.7" /></g><g
         transform="scale(1.55341)"
         id="g138"><path
           id="path140"
           style="fill:#91b3fa;fill-opacity:1;fill-rule:nonzero;stroke:none"
           d="m 7378.41,16143.3 c 0,-86.5 -70.11,-156.6 -156.63,-156.6 -86.52,0 -156.62,70.1 -156.62,156.6 0,86.5 70.1,156.7 156.62,156.7 86.52,0 156.63,-70.2 156.63,-156.7" /></g><g
         transform="scale(1.55341)"
         id="g142"><path
           id="path144"
           style="fill:#91b3fa;fill-opacity:1;fill-rule:nonzero;stroke:none"
           d="m 7904.41,16143.3 c 0,-86.5 -70.1,-156.6 -156.62,-156.6 -86.52,0 -156.69,70.1 -156.69,156.6 0,86.5 70.17,156.7 156.69,156.7 86.52,0 156.62,-70.2 156.62,-156.7" /></g><g
         transform="scale(1.89077)"
         id="g146"><path
           id="path148"
           style="fill:#bdd0fb;fill-opacity:1;fill-rule:nonzero;stroke:none"
           d="M 16074.1,7892.06 5521.13,8044.17 c -160.41,2.33 -289.21,133.02 -289.21,293.43 v 1056.18 c 0,149.25 121.92,269.78 271.17,268.09 L 16080.8,9541.6 c 121.5,-1.37 219.2,-100.22 219.2,-221.71 V 8114.72 c 0,-124.23 -101.7,-224.45 -225.9,-222.66" /></g><g
         transform="scale(1.4493)"
         id="g150"><path
           id="path152"
           style="fill:#bdd0fb;fill-opacity:1;fill-rule:nonzero;stroke:none"
           d="m 16013.9,12777.2 -8800.77,126.6 c -214.93,3.1 -387.51,178.2 -387.51,393.1 v 2724.5 c 0,153.8 124.7,278.6 278.57,278.6 h 8851.11 c 176.7,0 319.9,-143.2 319.9,-319.9 v -2945.3 c 0,-143.8 -117.6,-259.7 -261.3,-257.6" /></g><g
         transform="scale(1.89077)"
         id="g154"><path
           id="path156"
           style="fill:#bdd0fb;fill-opacity:1;fill-rule:nonzero;stroke:none"
           d="m 16077.2,9790.97 h -3213.8 c -113.5,0 -205.6,92.02 -205.6,205.52 v 2241.61 c 0,141.4 114.6,256 256.1,256 h 3231.6 c 85.3,0 154.5,-69.1 154.5,-154.4 v -2325.9 c 0,-123.08 -99.7,-222.83 -222.8,-222.83" /></g><g
         id="g158"><g
           clip-path="url(#clipPath164)"
           id="g160"><g
             transform="scale(1.38599)"
             id="g166"><path
               id="path174"
               style="fill:url(#linearGradient172);fill-opacity:1;fill-rule:nonzero;stroke:none"
               d="M 13948.9,6348.47 H 4396.16 c -60.24,37.52 -100.53,104.33 -100.53,180.16 l -43.39,1834.94 -114.32,4835.03 c -3.46,146.4 53.32,287.8 157.1,391.3 100.51,100.2 236.56,156.3 378.16,156.3 4.61,0 9.26,-0.1 13.88,-0.3 l 1327.95,-34.3 484.7,-12.6 9410.79,-243.5 c 9,0.7 17.9,1 26.7,1 234.9,0 362.8,-215.8 362.8,-328.3 l -0.7,-47.3 -9.1,-626.6 c -67,-446.2 -108,-930.8 -104.4,-1443.7 -68.6,4.1 -136.9,8.2 -205.2,12.1 l 25.6,1700.6 c -10.3,350.6 -309.5,482.7 -502.2,482.7 -5.5,0 -10.9,0 -16.1,-0.3 l -10756.71,288.6 c -3.35,0.1 -6.72,0.2 -10.07,0.2 -99.36,0 -194.81,-39.5 -265.35,-109.8 -72.92,-72.8 -113.03,-172.3 -110.45,-275.3 l 159.97,-6377.23 c 0,-110.54 90.41,-200.94 200.91,-200.94 h 9244.4 c -0.6,-61.33 -1.2,-122.08 -1.7,-182.76" /></g></g></g><g
         transform="scale(1.36101)"
         id="g176"><path
           id="path178"
           style="fill:#91b3fa;fill-opacity:1;fill-rule:nonzero;stroke:none"
           d="m 4587.99,6855.74 c 0,-112.57 92.07,-204.63 204.6,-204.63 H 16003.5 c 112.6,0 204.7,92.06 204.7,204.63 l 91.8,6101.06 c -10.8,367.2 -332.7,499.1 -527.8,491.3 L 4818.04,13742 c -104.85,2.8 -206.22,-37.6 -280.48,-111.6 -74.27,-74.1 -115.11,-175.5 -112.48,-280.3 l 162.91,-6494.36" /></g><g
         id="g180"><g
           clip-path="url(#clipPath186)"
           id="g182"><g
             transform="scale(1.18607)"
             id="g188"><path
               id="path196"
               style="fill:url(#linearGradient194);fill-opacity:1;fill-rule:nonzero;stroke:none"
               d="M 16294.9,6740.9 H 7355.99 3978.66 c -26.21,0 -47.66,21.41 -47.66,47.63 v 582.26 c 0,26.22 21.45,47.72 47.66,47.72 H 5137.14 16300 c -2.1,-231.52 -3.9,-458.49 -5.1,-677.61" /></g></g></g><g
         id="g198"><g
           clip-path="url(#clipPath204)"
           id="g200"><g
             transform="scale(1.36101)"
             id="g206"><path
               id="path214"
               style="fill:url(#linearGradient212);fill-opacity:1;fill-rule:nonzero;stroke:none"
               d="m 16290.8,12341.6 9.2,611.3 c -10.8,367.2 -332.7,501 -527.8,493.3 L 4818.04,13741 c -104.85,2.9 -206.22,-37 -280.49,-111.2 -74.26,-74 -115.09,-179.1 -112.47,-283.9 l 25.11,-1004.3 H 16290.8" /></g></g></g><g
         transform="scale(1.34635)"
         id="g216"><path
           id="path218"
           style="fill:#ffffff;fill-opacity:1;fill-rule:nonzero;stroke:none"
           d="m 16262.1,9860.37 h -0.4 c -16.7,0.22 -30.1,13.96 -29.9,30.74 l 7.4,500.19 c 0.2,16.5 13.7,29.8 30.3,29.8 h 0.3 c 16.8,-0.2 30.2,-13.9 30,-30.7 l -7.4,-500.17 c -0.2,-16.57 -13.7,-29.86 -30.3,-29.86" /></g><g
         transform="scale(1.34953)"
         id="g220"><path
           id="path222"
           style="fill:#bdd0fb;fill-opacity:1;fill-rule:nonzero;stroke:none"
           d="m 16241.8,11059.9 h -0.6 c -16.6,0.2 -30,14 -29.7,30.7 l 28,1911.1 c -0.5,113.6 -34.9,204.2 -102.4,268.8 -125.9,120.6 -325.8,114.5 -334.2,114.1 l -3531,94.6 c -16.6,0.5 -29.8,14.4 -29.3,31.1 0.4,16.7 13.2,30.9 31,29.4 l 3528.8,-94.7 c 22,1.3 234.8,5 376.5,-130.8 79.8,-76.4 120.5,-181.7 121.1,-312.7 l -28.1,-1911.8 c -0.2,-16.5 -13.7,-29.8 -30.1,-29.8" /></g><g
         transform="scale(1.0056)"
         id="g224"><path
           id="path226"
           style="fill:#bdd0fb;fill-opacity:1;fill-rule:nonzero;stroke:none"
           d="M 15345.7,12496.7 H 7035.43 c -206.67,0 -374.2,167.6 -374.2,374.2 v 3054.9 c 0,206.7 167.53,374.2 374.2,374.2 h 8310.27 c 206.7,0 374.2,-167.5 374.2,-374.2 v -3054.9 c 0,-206.6 -167.5,-374.2 -374.2,-374.2" /></g><g
         transform="scale(1.33315)"
         id="g228"><path
           id="path230"
           style="fill:#bdd0fb;fill-opacity:1;fill-rule:nonzero;stroke:none"
           d="m 16097.8,9426.34 h -3681.5 c -111.7,0 -202.2,90.54 -202.2,202.23 V 12093 c 0,111.7 90.5,202.2 202.2,202.2 h 3681.5 c 111.7,0 202.2,-90.5 202.2,-202.2 V 9628.57 c 0,-111.69 -90.5,-202.23 -202.2,-202.23" /></g><g
         transform="scale(1.33315)"
         id="g232"><path
           id="path234"
           style="fill:#bdd0fb;fill-opacity:1;fill-rule:nonzero;stroke:none"
           d="M 16051.5,7061.71 H 5273.17 c -137.29,0 -248.57,111.32 -248.57,248.59 v 1450.25 c 0,137.27 111.28,248.51 248.57,248.51 H 16051.5 c 137.3,0 248.5,-111.24 248.5,-248.51 V 7310.3 c 0,-137.27 -111.2,-248.59 -248.5,-248.59" /></g><g
         transform="scale(1.10232)"
         id="g236"><path
           id="path238"
           style="fill:#91b3fa;fill-opacity:1;fill-rule:nonzero;stroke:none"
           d="m 6357.13,16126.4 c 0,-96 -77.76,-173.8 -173.69,-173.8 -95.92,0 -173.68,77.8 -173.68,173.8 0,95.9 77.76,173.6 173.68,173.6 95.93,0 173.69,-77.7 173.69,-173.6" /></g><g
         transform="scale(1.10119)"
         id="g240"><path
           id="path242"
           style="fill:#91b3fa;fill-opacity:1;fill-rule:nonzero;stroke:none"
           d="m 6943.2,16126.1 c 0,-96 -77.85,-173.9 -173.86,-173.9 -96.03,0 -173.87,77.9 -173.87,173.9 0,96 77.84,173.9 173.87,173.9 96.01,0 173.86,-77.9 173.86,-173.9" /></g><g
         transform="scale(1.09901)"
         id="g244"><path
           id="path246"
           style="fill:#91b3fa;fill-opacity:1;fill-rule:nonzero;stroke:none"
           d="m 7498.94,16125.8 c 0,-96.2 -77.99,-174.2 -174.21,-174.2 -96.21,0 -174.2,78 -174.2,174.2 0,96.2 77.99,174.2 174.2,174.2 96.22,0 174.21,-78 174.21,-174.2" /></g><g
         transform="scale(1.61801)"
         id="g248"><path
           id="path250"
           style="fill:#ffffff;fill-opacity:1;fill-rule:nonzero;stroke:none"
           d="m 14971.4,14655.2 c 0,-908.4 -727.1,-1644.8 -1624,-1644.8 -896.9,0 -1624,736.4 -1624,1644.8 0,908.4 727.1,1644.8 1624,1644.8 896.9,0 1624,-736.4 1624,-1644.8" /></g><g
         id="g252"><g
           clip-path="url(#clipPath258)"
           id="g254"><g
             transform="scale(1.55043)"
             id="g260"><path
               id="path268"
               style="fill:url(#linearGradient266);fill-opacity:1;fill-rule:nonzero;stroke:none"
               d="m 13869.5,14369.1 c -73.5,0 -141.8,39 -179.8,103.1 l -637.6,1074.8 c -59.7,100.7 -27.5,231.2 71.8,291.6 99.3,60.4 228.2,27.9 287.9,-72.7 l 442.6,-746.2 585.1,1164 c 52.5,104.6 178.9,146.2 282.1,93 103.3,-53.3 144.3,-181.2 91.8,-285.8 l -756.9,-1505.7 c -34.6,-68.9 -103.4,-113.2 -179.6,-116 -2.5,0 -4.9,-0.1 -7.4,-0.1" /></g></g></g><path
         id="path270"
         style="fill:#ffffff;fill-opacity:1;fill-rule:nonzero;stroke:none"
         d="m 12424.5,13499.5 c 0,-1469.8 -1176.5,-2661.3 -2627.71,-2661.3 -1451.23,0 -2627.67,1191.5 -2627.67,2661.3 0,1469.8 1176.44,2661.3 2627.67,2661.3 1451.21,0 2627.71,-1191.5 2627.71,-2661.3" /><g
         id="g272"><g
           clip-path="url(#clipPath278)"
           id="g274"><path
             id="path286"
             style="fill:url(#linearGradient284);fill-opacity:1;fill-rule:nonzero;stroke:none"
             d="m 9704.24,12065.5 c -113.9,0 -219.85,60.4 -278.78,159.7 l -988.55,1666.6 c -92.53,156 -42.68,358.3 111.32,452 153.93,93.7 353.79,43.3 446.32,-112.7 l 686.22,-1156.9 907.13,1804.6 c 81.5,162.2 277.4,226.7 437.5,144.1 160.1,-82.5 223.8,-280.9 142.3,-443 L 9994.16,12245.4 c -53.66,-106.7 -160.32,-175.6 -278.48,-179.7 -3.81,-0.2 -7.63,-0.2 -11.44,-0.2" /></g></g><g
         id="g288"><g
           clip-path="url(#clipPath294)"
           id="g290"><g
             transform="scale(1.87662)"
             id="g296"><path
               id="path304"
               style="fill:url(#linearGradient302);fill-opacity:1;fill-rule:nonzero;stroke:none"
               d="m 4926.78,13942.6 c 180.57,350.7 516.41,598 906.52,642.2 l 26.7,1688.9 c 0.21,14.4 -11.46,26.3 -25.9,26.1 -1100.31,-11.9 -2071.2,-696.7 -2524.32,-1711.1 -6.59,-14.7 0.7,-32 15.81,-37.8 l 1601.19,-608.3" /></g></g></g><g
         id="g306"><g
           clip-path="url(#clipPath312)"
           id="g308"><g
             transform="scale(1.51209)"
             id="g314"><path
               id="path322"
               style="fill:url(#linearGradient320);fill-opacity:1;fill-rule:nonzero;stroke:none"
               d="m 8812.92,16299.7 c -28.04,0.8 -53.17,-17.1 -61.5,-43.9 -23.48,-74.9 -66.33,-218.7 -73.34,-236.9 -34.13,-88.5 -74.14,-174.7 -120.96,-257.2 -86.9,-152.9 -197.94,-293.1 -335.03,-404 -347.34,-281.3 -846.65,-333.6 -1263.16,-194.4 -11.84,4 -23.61,8.3 -35.38,12.6 -21.69,8.2 -46.03,-0.8 -57.14,-21.1 L 5816.19,13239.5 c 509.96,-255.7 989.84,-322.6 1591.92,-284 1749.24,112.1 3122.79,1532.4 3275.39,3293.8 l -1870.58,50.4" /></g></g></g><g
         id="g324"><g
           clip-path="url(#clipPath330)"
           id="g326"><g
             transform="scale(1.51206)"
             id="g332"><path
               id="path340"
               style="fill:url(#linearGradient338);fill-opacity:1;fill-rule:nonzero;stroke:none"
               d="m 8813.1,16300 c -113.88,-698.9 -630.4,-1245.1 -1332.35,-1268.9 -197.42,-6.6 -433.06,39.2 -606.26,109.4 -18.06,7.3 -38.76,-0.1 -48.55,-17 l -1079.48,-1857 c 509.96,-255.7 1085.83,-380.9 1687.92,-342.3 1749.28,112.1 3122.92,1575.5 3275.42,3336.9 l -1896.7,38.9" /></g></g></g><g
         id="g342"><g
           clip-path="url(#clipPath348)"
           id="g344"><g
             transform="scale(1.63977)"
             id="g350"><path
               id="path358"
               style="fill:url(#linearGradient356);fill-opacity:1;fill-rule:nonzero;stroke:none"
               d="m 5091.42,12503.6 963.81,1728.7 c 6.82,12.2 3.92,27.5 -6.8,36.6 -296.72,249.8 -533.93,584.9 -533.93,1019.3 0,107.2 -47.51,263.2 -25.75,363.7 L 3676.21,16300 c -100.62,-327.3 -154.93,-675.6 -154.93,-1036.5 0,-1166.9 619.96,-2193 1471.2,-2782.9 33.27,-23.1 79.22,-12.4 98.94,23" /></g></g></g><g
         id="g360"><g
           clip-path="url(#clipPath366)"
           id="g362"><g
             transform="scale(1.64859)"
             id="g368"><path
               id="path376"
               style="fill:url(#linearGradient374);fill-opacity:1;fill-rule:nonzero;stroke:none"
               d="m 4968.32,12485.6 993.44,1698.2 c 12.62,21.5 8.28,49 -10.49,65.5 -284.98,250.7 -466.28,627.4 -466.28,1052.5 0,106.6 11.5,210.5 33.15,310.5 l -1834.6,685.8 c -14.61,5.5 -30.9,-2.5 -35.36,-17.4 -94.72,-317.6 -145.75,-654.6 -145.75,-1003.5 0,-1188.8 587.38,-2212.5 1465.89,-2791.6" /></g></g></g><g
         id="g378"><g
           clip-path="url(#clipPath384)"
           id="g380"><g
             transform="scale(2.0051)"
             id="g386"><path
               id="path394"
               style="fill:url(#linearGradient392);fill-opacity:1;fill-rule:nonzero;stroke:none"
               d="m 5748.5,13642.8 c 467.56,-78.2 830.13,-471.9 891.53,-963.9 3.29,-26.3 25.03,-46.4 51.52,-47.3 l 2261.33,-75.7 c 7.03,6.7 10.73,10.3 17.76,17.2 -6.93,1891.7 -1363.38,3512.4 -3180.4,3726.9 l -41.74,-2657.2" /></g></g></g><g
         id="g396"><g
           clip-path="url(#clipPath402)"
           id="g398"><path
             id="path410"
             style="fill:url(#linearGradient408);fill-opacity:1;fill-rule:nonzero;stroke:none"
             d="m 11943.3,6235.2 c 4.1,1.6 2183.7,3818.5 2478.2,4177.7 49.5,60.4 126.2,91.2 203.8,81.9 l 608.4,-72.5 714.6,-1546.1 -1190.6,693.4 C 14875.5,8754.8 13346,7543.9 12821.4,7102 c -53.2,-44.8 -57.6,-125.1 -9.5,-175.4 l 209.4,-219.3 C 12677.5,6358.8 12280.7,6135 11833,6031.5 l 110.3,203.7" /></g></g><g
         id="g412"><g
           clip-path="url(#clipPath418)"
           id="g414"><path
             id="path426"
             style="fill:url(#linearGradient424);fill-opacity:1;fill-rule:nonzero;stroke:none"
             d="m 12900.2,6825.6 c 0,0 133.6,-43.1 178.9,-162.2 21.6,-56.9 -1.7,-121.4 -51.2,-156.9 -220.1,-157.7 -946.1,-666.8 -1281.1,-766.5 -27.5,-8.1 -53.6,16.7 -47.4,44.7 17.2,77.8 72.8,233.2 251.9,460.7 l -16,-32.5 c -20.4,-41.1 24.4,-84 64.4,-61.4 224.1,126.5 680.5,403.3 900.5,674.1" /></g></g><g
         id="g428"><g
           clip-path="url(#clipPath434)"
           id="g430"><path
             id="path442"
             style="fill:url(#linearGradient440);fill-opacity:1;fill-rule:nonzero;stroke:none"
             d="m 12792.3,5298.4 c 3.7,2.4 330.7,790.2 334.3,792.5 299.8,1825.5 1031.4,3388.9 1247.1,3800.3 36.3,69.2 105.2,114.8 183,121.5 l 610.5,52.1 1012.8,-1369.5 -1306.4,438.1 c 280.3,-774.1 -972.5,-2269.5 -1396.8,-2808.4 -43.1,-54.7 -31.1,-134.2 26.1,-173.8 l 249.5,-172.3 c -266.2,-410.9 -609.4,-710.3 -1027,-902.3 l 66.9,221.8" /></g></g><g
         id="g444"><g
           clip-path="url(#clipPath450)"
           id="g446"><path
             id="path458"
             style="fill:url(#linearGradient456);fill-opacity:1;fill-rule:nonzero;stroke:none"
             d="m 13609.8,6070.3 c 0,0 139.7,-15.3 208.1,-122.7 32.7,-51.4 22.9,-119.3 -18.4,-164.1 -183.7,-198.9 -791.6,-844.4 -1099.5,-1009.8 -25.2,-13.6 -55.8,5.5 -55.4,34.1 1,79.7 24,243.2 153.5,502.2 l -9.2,-35.1 c -11.6,-44.4 40.9,-77.3 75.5,-47.1 193.9,169.3 584.8,532.7 745.4,842.5" /></g></g><g
         id="g460"><g
           clip-path="url(#clipPath466)"
           id="g462"><g
             transform="scale(1.14288)"
             id="g468"><path
               id="path476"
               style="fill:url(#linearGradient474);fill-opacity:1;fill-rule:nonzero;stroke:none"
               d="m 15771.1,9058.84 c 0,0 483.1,-718.71 522.9,-1046.47 39.6,-327.86 -133.6,-441.25 -639.4,-482.99 -1504.9,-124.43 -2246.8,326.63 -2246.8,326.63 -103,656.41 -176.3,823.35 -1036.1,1180.26 0,0 1087.5,-86.36 1306.4,-1.4 218.9,84.96 2093,23.97 2093,23.97" /></g></g></g><g
         id="g478"><g
           clip-path="url(#clipPath484)"
           id="g480"><g
             transform="scale(1.13386)"
             id="g486"><path
               id="path494"
               style="fill:url(#linearGradient492);fill-opacity:1;fill-rule:nonzero;stroke:none"
               d="m 13954.5,13189.4 c 0,0 339.2,401.3 699.8,-91.1 65.3,-89.2 316.2,-15.6 408.2,-202.3 47.4,-96.4 150,-151.1 255.6,-131.6 263.2,48.5 693.3,52.6 905.7,-359.7 162.1,-314.8 37,-499.1 -125.1,-604.1 -119,-77.2 -161.5,-233.7 -89.6,-355.9 69.1,-117.2 82.1,-276 -96.2,-467 -399.4,-428.1 -1190.1,271.7 -1190.1,271.7 l -627.7,1483.4 -140.6,456.6" /></g></g></g><g
         id="g496"><g
           clip-path="url(#clipPath502)"
           id="g498"><g
             transform="scale(1.14011)"
             id="g504"><path
               id="path512"
               style="fill:url(#linearGradient510);fill-opacity:1;fill-rule:nonzero;stroke:none"
               d="m 14499.6,9176.21 c 0,0 -564.1,537.15 -841.7,892.79 -150.1,192.4 -197.2,445.5 -127.8,679.3 126.7,427.1 352,869.3 372.6,938.2 31.5,105.5 663.9,101.1 663.9,101.1 0,0 1244.5,-807.6 1733.4,-2175.81 l -549.1,-170.95 c 0,0 -324.9,545.12 -646,891.76 0,0 555.5,-733.88 575.1,-1034.38 l -1180.4,-122.01" /></g></g></g><g
         id="g514"><g
           clip-path="url(#clipPath520)"
           id="g516"><g
             transform="scale(1.14902)"
             id="g522"><path
               id="path530"
               style="fill:url(#linearGradient528);fill-opacity:1;fill-rule:nonzero;stroke:none"
               d="m 13320.8,8894.81 420.6,457.52 485.6,-130.72 c 0,0 566.2,-87.73 890.3,0 324.1,87.73 324.1,87.73 324.1,87.73 l 732.2,227.93 115.1,-325.06 c 29.2,-82.5 -0.2,-174.15 -71.6,-224.8 -63.2,-45.08 -137.5,-94.51 -184.9,-115.23 -96.4,-42.21 -2221.5,-13.31 -2221.5,-13.31 l -489.9,35.94" /></g></g></g><g
         id="g532"><g
           clip-path="url(#clipPath538)"
           id="g534"><g
             transform="scale(1.0182)"
             id="g540"><path
               id="path548"
               style="fill:url(#linearGradient546);fill-opacity:1;fill-rule:nonzero;stroke:none"
               d="m 15824.1,14050.5 475.9,-885.1 c -31.4,-193.1 -518.1,-198.6 -593.2,-83.2 -7.7,11.7 -12.1,25.3 -14.9,39 l -284.8,591.4 c -12.2,57.6 145.9,251.9 197.9,279.6 l 189.2,100.8 c 72.9,38.7 -231.1,41.8 29.9,-42.5" /></g></g></g><g
         id="g550"><g
           clip-path="url(#clipPath556)"
           id="g552"><path
             id="path564"
             style="fill:url(#linearGradient562);fill-opacity:1;fill-rule:nonzero;stroke:none"
             d="m 15131.2,14517.7 c 0,0 -54.7,-304.5 184.6,-691.6 239.3,-387.1 477.6,-369.6 598.6,-231.6 121.1,138.1 266.1,368 200.1,754.1 -66,386.1 -900.7,557.3 -983.3,169.1" /></g></g><g
         id="g566"><g
           clip-path="url(#clipPath572)"
           id="g568"><g
             transform="scale(1.00282)"
             id="g574"><path
               id="path582"
               style="fill:url(#linearGradient580);fill-opacity:1;fill-rule:nonzero;stroke:none"
               d="m 15780.3,14266.3 c 0,0 -386.3,507.6 -683,65.2 l 5,-152.8 c 0,0 -385.8,17.9 -343.9,373.5 41.7,355.6 356.7,598.4 793.3,477 436.7,-121.5 691.8,-259.8 741,-562.9 49.4,-303.2 -198.1,-253.7 -198.1,-253.7 0,0 -94.7,209.2 -208.7,223.5 -114.2,14.2 -73,-151.2 -73,-151.2 l -32.6,-18.6" /></g></g></g><g
         id="g584"><g
           clip-path="url(#clipPath590)"
           id="g586"><path
             id="path598"
             style="fill:url(#linearGradient596);fill-opacity:1;fill-rule:nonzero;stroke:none"
             d="m 15913.8,14320.2 c 0,0 -200.8,260.5 -18.1,314.5 182.8,54.1 175.9,-255.2 164,-370.2 l -145.9,55.7" /></g></g><g
         id="g600"><g
           clip-path="url(#clipPath606)"
           id="g602"><g
             transform="scale(1.04294)"
             id="g608"><path
               id="path616"
               style="fill:url(#linearGradient614);fill-opacity:1;fill-rule:nonzero;stroke:none"
               d="m 16209.3,9599.99 c -1.6,-0.1 -3.3,-0.1 -4.9,-0.1 l -2131,2.3 c -52.6,0.1 -95.3,42.86 -95.3,95.5 0.1,52.74 43,96.27 95.5,95.31 l 2131,-2.3 c 52.7,-0.1 95.4,-42.86 95.3,-95.5 -0.1,-51.01 -40.2,-92.72 -90.6,-95.21" /></g></g></g><g
         id="g618"><g
           clip-path="url(#clipPath624)"
           id="g620"><path
             id="path632"
             style="fill:url(#linearGradient630);fill-opacity:1;fill-rule:nonzero;stroke:none"
             d="m 12679.8,12030.1 h 1850.9 c 136.5,0 260.8,-78.8 319.1,-202.3 l 855.6,-1814.4 h -2300.2 c -87.9,0 -167,53.8 -199.4,135.6 l -663.5,1679 c -38.3,97 33.2,202.1 137.5,202.1" /></g></g><g
         id="g634"><g
           clip-path="url(#clipPath640)"
           id="g636"><path
             id="path648"
             style="fill:url(#linearGradient646);fill-opacity:1;fill-rule:nonzero;stroke:none"
             d="m 13983.8,11099.8 c 40.1,-124.6 10.4,-245.6 -66.2,-270.3 -76.7,-24.7 -171.3,56.3 -211.4,181 -40.2,124.6 -10.5,245.6 66.1,270.3 76.7,24.6 171.4,-56.4 211.5,-181" /></g></g><g
         id="g650"><g
           clip-path="url(#clipPath656)"
           id="g652"><g
             transform="scale(1.78994)"
             id="g658"><path
               id="path666"
               style="fill:url(#linearGradient664);fill-opacity:1;fill-rule:nonzero;stroke:none"
               d="m 14384.9,3798.51 c 0.7,52.29 1.5,106.6 2.2,162.58 27.7,-30.28 55.7,-60.51 84.2,-90.73 -28.8,-24.58 -57.6,-48.5 -86.4,-71.85 m 523.6,509.35 c 276.2,804.66 560.7,2313.54 -285.5,4008.63 -173,346.32 -323.2,663.93 -453.9,954.33 11.1,297.78 46.5,577.45 100.7,839.18 310.8,1502.7 1236.9,2414.6 1692.8,2784.2 17.6,14.3 38.3,20.5 58.6,20.5 50.2,0 97.4,-38.4 85.6,-89 -123.9,-527 51.1,-1530 142.8,-2738.2 41.5,-546.72 66,-1135.24 38,-1740.9 -4.8,-102.74 -11,-206.21 -18.9,-309.84 -4.7,-61.07 -9.9,-122.13 -15.9,-183.42 -1.1,-12.46 -2.4,-24.8 -3.6,-37.26 -17.3,-173.3 -39.6,-347.44 -67.8,-521.75 -149.6,-926.79 -463.4,-1859.62 -1061.3,-2712.89 -67.7,-96.54 -138.5,-187.71 -211.6,-273.58" /></g></g></g><g
         transform="scale(1.71713)"
         id="g668"><path
           id="path670"
           style="fill:#7d97f4;fill-opacity:1;fill-rule:nonzero;stroke:none"
           d="m 16297.8,12294.7 c -80.8,-383.1 -152.9,-767.4 -208.6,-1153.4 -58,-385.7 -102.5,-772.7 -133,-1160.39 -28.6,-387.75 -48.9,-775.89 -50.1,-1164.22 -3.2,-388.26 13,-776.23 30.8,-1165.72 15.3,-389.37 33.2,-781.54 4.7,-1176.44 -28.1,-394.15 -111,-791.73 -275.7,-1164.38 -41.1,-92.89 -84.4,-185.49 -133.5,-275 -47.3,-90.27 -99.2,-178.79 -152.9,-266.49 -108.5,-174.89 -230.6,-343.95 -366.7,-504.33 -273.1,-320.3 -602.5,-604.44 -965.4,-844.9 -38.2,-25.33 -92.9,-19.1 -122.2,13.92 -28.8,32.38 -22.4,78.5 14,104.13 l 0.3,0.17 c 86.4,60.63 171.7,122.06 253.7,186.59 41.6,31.68 81.5,64.88 122.1,97.43 39.1,33.84 79.7,66.39 117.6,101.28 154.1,137.14 296.8,283.43 426.3,438.17 260.5,308.01 469.1,651.2 627.1,1006.97 76.7,178.73 138,362.06 182.8,548.76 44.6,186.77 72.6,376.8 88.1,568.39 31.1,383.32 17,771.58 5,1161.01 -11.4,389.49 -19.8,781.02 -9.5,1172.19 4.5,195.56 13.2,391.06 25.8,586.33 5.6,97.6 13.5,195.15 21.1,292.7 8.8,97.49 18.1,194.92 28.5,292.23 41.9,389.3 97.6,777.3 167.4,1163.2 72,385.7 155.8,769.5 256.5,1150 2.9,10.8 15.4,17.6 28,15.1 12.3,-2.4 20,-12.7 17.8,-23.3" /></g><g
         transform="scale(1.71744)"
         id="g672"><path
           id="path674"
           style="fill:#7d97f4;fill-opacity:1;fill-rule:nonzero;stroke:none"
           d="m 15087.8,4027.81 c 85.4,-90.6 235.6,-64.52 287,48.91 283.5,625.99 925.2,2468.33 -134.5,4590.85 -894.9,1792.43 -1209.8,2849.33 -1319.5,3339.03 -23.2,103.5 -165.1,117.3 -207.9,20.2 -472.6,-1071.2 -1720.5,-4714.79 1374.9,-7998.99" /></g><g
         transform="scale(1.61214)"
         id="g676"><path
           id="path678"
           style="fill:#91b3fa;fill-opacity:1;fill-rule:nonzero;stroke:none"
           d="m 16238.5,4361.3 c 3.3,-0.56 6.6,-0.87 10,-0.81 28.6,0.44 51.5,24.01 51.1,52.6 -0.6,32.44 -63.7,3273.86 -1269.3,5988.61 -11.6,26.2 -42.2,38 -68.3,26.4 -26.2,-11.7 -37.9,-42.2 -26.3,-68.4 1196.8,-2695.08 1259.7,-5916.03 1260.2,-5948.22 0.4,-25.18 18.7,-45.9 42.6,-50.18" /></g><g
         id="g680"><g
           clip-path="url(#clipPath686)"
           id="g682"><g
             transform="scale(1.58123)"
             id="g688"><path
               id="path696"
               style="fill:url(#linearGradient694);fill-opacity:1;fill-rule:nonzero;stroke:none"
               d="m 14970.8,3337.28 c -169,0 -344.6,1.01 -521.3,2.78 -829,8.1 -1683.6,32.26 -2013.8,44.91 -112.2,4.3 -202.2,109.66 -205.7,240.89 -9.1,339.67 -10.5,849.08 -7.2,1430.47 0.9,164.36 2.2,334.61 3.8,508.27 0.4,53.19 0.9,106.44 1.5,160.19 0.8,75.77 1.6,152.36 2.4,229 6.2,550.91 14.7,1119.9 23.5,1641.83 2.1,119.97 4.1,237.67 6.2,351.82 10.8,610.6 21.3,1126.59 27.7,1426.04 3.5,165.7 114.3,301.16 255.7,311.91 111.9,8.48 249.4,12.27 404.8,12.27 233.5,0 507.1,-8.54 794.3,-22.2 32,-1.52 64.1,-3.1 96.4,-4.74 17.1,-0.89 34.3,-1.77 51.5,-2.72 38.8,-2.02 77.8,-4.17 116.8,-6.33 59.9,-3.41 119.7,-6.95 179.9,-10.62 732,-45.09 1464.6,-111.94 1787.1,-149.69 140.2,-16.45 250.3,-147.17 262.2,-311.41 81.5,-1129.75 67.6,-3361.12 49.6,-4706.03 -0.9,-63.36 -1.8,-124.84 -2.6,-184.03 -1.5,-106.82 -3.1,-206.61 -4.5,-298.06 -1.5,-87.15 -2.8,-166.71 -4.1,-237.73 -3.9,-221.28 -154.2,-400.38 -343.3,-409.62 -252,-12.39 -590.8,-17.2 -960.9,-17.2 m -1918.7,5995.6 c -114,0 -213.7,-2.34 -294.3,-7.46 -121,-7.72 -217.2,-121.3 -222.3,-262.9 -29.9,-817.91 -124.1,-3539.03 -94.2,-4545.27 4.4,-147.04 103.5,-265.99 229,-274.59 365.1,-24.98 1352.4,-71.28 2167.9,-71.28 339.3,0 648.8,8.03 871.6,28.9 136.5,12.78 243.7,141.98 251.1,302.05 38.4,834.48 148.7,3368.2 120.1,4363.13 -4.6,158.74 -109.7,288.32 -244.9,302.55 -489.4,51.41 -1985.8,164.87 -2784,164.87 m 739.7,235.51 c -29.5,0 -58,-0.5 -84.9,-1.64 -26.8,-1.14 -47.9,-27.07 -47.9,-58.44 0,-31.11 20.8,-56.72 47.3,-58.37 131.1,-8.03 500.1,-30.74 665.1,-41.93 1,-0.06 2.1,-0.13 3,-0.13 31.1,0 54.9,33.27 49,69.57 l -1.1,6.39 c -4.3,25.48 -22.3,44.71 -44.5,47.11 -98.1,10.5 -370.1,37.44 -586,37.44" /></g></g></g><g
         transform="scale(1.56276)"
         id="g698"><path
           id="path700"
           style="fill:#91b3fa;fill-opacity:1;fill-rule:nonzero;stroke:none"
           d="m 12683.6,9169.61 c -30.2,-827.58 -125.6,-3580.85 -95.3,-4598.98 4.4,-148.78 104.7,-269.14 231.7,-277.84 523.2,-35.77 2308.1,-114.73 3075.4,-42.87 138.1,12.92 246.6,143.65 254.1,305.61 38.8,844.34 150.5,3408.01 121.5,4414.69 -4.6,160.61 -110.9,291.72 -247.8,306.12 -565.9,59.45 -2462.6,200.86 -3114.6,159.27 -122.4,-7.81 -219.8,-122.73 -225,-266" /></g><g
         id="g702"><g
           clip-path="url(#clipPath708)"
           id="g704"><g
             transform="scale(1.39926)"
             id="g710"><path
               id="path718"
               style="fill:url(#linearGradient716);fill-opacity:1;fill-rule:nonzero;stroke:none"
               d="m 16243.7,10631.3 c -1.1,0 -2.2,0.1 -3.4,0.1 -186.4,12.7 -603.5,38.4 -751.7,47.4 -29.9,1.9 -53.3,30.8 -53.3,66 0,35.4 23.8,64.7 54.1,66 30.3,1.3 62.6,1.9 95.9,1.9 244,0 551.4,-30.5 662.2,-42.3 25.1,-2.7 45.5,-24.5 50.3,-53.3 l 1.2,-7.2 c 6.7,-41 -20.2,-78.6 -55.3,-78.6" /></g></g></g><g
         id="g720"><g
           clip-path="url(#clipPath726)"
           id="g722"><g
             transform="scale(1.56042)"
             id="g728"><path
               id="path736"
               style="fill:url(#linearGradient734);fill-opacity:1;fill-rule:nonzero;stroke:none"
               d="m 16300,8669.99 -3612.6,81.84 c 7.2,200.52 10.6,301.84 15.2,430.39 5.3,143.49 102.8,259.49 225.4,267.3 81.5,5.2 182.3,7.57 297.6,7.57 808.7,0 2325.6,-115.23 2821.7,-167.33 137,-14.42 243.5,-146.31 248.1,-307.1 2.7,-91.77 4.2,-201.29 4.6,-312.67 m -2655.2,409.95 c -55.4,0 -100.3,-44.86 -100.3,-100.22 0,-55.37 44.9,-100.3 100.3,-100.3 55.4,0 100.2,44.93 100.2,100.3 0,55.36 -44.8,100.22 -100.2,100.22 m -312,18.59 c -55.3,0 -100.2,-44.86 -100.2,-100.23 0,-55.43 44.9,-100.29 100.2,-100.29 55.4,0 100.3,44.86 100.3,100.29 0,55.37 -44.9,100.23 -100.3,100.23 m -334.2,9.68 c -55.3,0 -100.3,-44.93 -100.3,-100.3 0,-55.37 45,-100.23 100.3,-100.23 55.4,0 100.3,44.86 100.3,100.23 0,55.37 -44.9,100.3 -100.3,100.3" /></g></g></g><g
         transform="scale(1.39926)"
         id="g738"><path
           id="path740"
           style="fill:#bfd3fc;fill-opacity:1;fill-rule:nonzero;stroke:none"
           d="m 16134.3,7698.48 h -1647.4 c -97.4,0 -176.4,81.33 -176.4,181.59 v 1446.62 c 0,90.33 71.2,163.23 158.4,163.23 1.3,0 2.6,-0.07 3.9,-0.07 l 1662.8,-40.95 c 91.4,-2.22 164.4,-79.19 164.4,-173.45 V 7869.07 c 0,-94.2 -74.2,-170.59 -165.7,-170.59" /></g><g
         transform="scale(1.5429)"
         id="g742"><path
           id="path744"
           style="fill:#bfd3fc;fill-opacity:1;fill-rule:nonzero;stroke:none"
           d="m 16251.2,6981.81 h -1278.4 c -32.1,0 -58.2,26.12 -58.2,58.27 v 1480.07 c 0,25.15 20.4,45.5 45.5,45.5 h 1294.1 c 25.3,0 45.8,-20.48 45.8,-45.76 V 7030.68 c 0,-26.97 -21.8,-48.87 -48.8,-48.87" /></g><g
         transform="scale(1.5429)"
         id="g746"><path
           id="path748"
           style="fill:#bfd3fc;fill-opacity:1;fill-rule:nonzero;stroke:none"
           d="m 16253.1,5696.17 h -3276.5 c -28.7,0 -51.9,23.27 -51.9,51.92 v 983.93 c 0,23.2 18.8,42.06 42.1,42.06 h 3284.3 c 27,0 48.9,-21.9 48.9,-48.93 V 5743.1 c 0,-25.93 -21,-46.93 -46.9,-46.93" /></g><g
         transform="scale(1.53477)"
         id="g750"><path
           id="path752"
           style="fill:#bfd3fc;fill-opacity:1;fill-rule:nonzero;stroke:none"
           d="m 16038.8,4503.01 c -1.4,0 -2.8,0 -4.2,0 l -2888.4,40.27 c -85.6,1.24 -154.2,63.66 -154.2,140.28 v 699.19 c 0,67.44 61.1,122.1 136.5,122.1 H 16167 c 72,0 130.5,-52.19 130.7,-116.63 l 1.9,-651.1 c 0.4,-129.4 -116.8,-234.11 -260.8,-234.11" /></g><g
         id="g754"><g
           clip-path="url(#clipPath760)"
           id="g756"><g
             transform="scale(1.25397)"
             id="g762"><path
               id="path770"
               style="fill:url(#linearGradient768);fill-opacity:1;fill-rule:nonzero;stroke:none"
               d="m 16175.3,11084.6 c -68.9,0 -124.8,55.8 -124.8,124.7 0,68.9 55.9,124.8 124.8,124.8 68.9,0 124.7,-55.9 124.7,-124.8 0,-68.9 -55.8,-124.7 -124.7,-124.7" /></g></g></g><g
         id="g772"><g
           clip-path="url(#clipPath778)"
           id="g774"><g
             transform="scale(1.28597)"
             id="g780"><path
               id="path788"
               style="fill:url(#linearGradient786);fill-opacity:1;fill-rule:nonzero;stroke:none"
               d="m 16178.3,10797 c -67.2,0 -121.6,54.4 -121.6,121.7 0,67.2 54.4,121.6 121.6,121.6 67.2,0 121.7,-54.4 121.7,-121.6 0,-67.3 -54.5,-121.7 -121.7,-121.7" /></g></g></g><g
         id="g790"><g
           clip-path="url(#clipPath796)"
           id="g792"><g
             transform="scale(1.31583)"
             id="g798"><path
               id="path806"
               style="fill:url(#linearGradient804);fill-opacity:1;fill-rule:nonzero;stroke:none"
               d="m 16181.1,10529.9 c -65.6,0 -118.9,53.3 -118.9,119 0,65.6 53.3,118.8 118.9,118.8 65.7,0 118.9,-53.2 118.9,-118.8 0,-65.7 -53.2,-119 -118.9,-119" /></g></g></g><g
         transform="scale(1.52197)"
         id="g808"><path
           id="path810"
           style="fill:#ffffff;fill-opacity:1;fill-rule:nonzero;stroke:none"
           d="m 16300,7273.93 c 0,-747.32 -598.2,-1353.11 -1336,-1353.11 -737.8,0 -1336,605.79 -1336,1353.11 0,747.26 598.2,1353.05 1336,1353.05 737.8,0 1336,-605.79 1336,-1353.05" /></g><g
         id="g812"><g
           clip-path="url(#clipPath818)"
           id="g814"><g
             transform="scale(1.46399)"
             id="g820"><path
               id="path828"
               style="fill:url(#linearGradient826);fill-opacity:1;fill-rule:nonzero;stroke:none"
               d="m 15507.7,6804.02 c -60.2,0 -116.2,31.97 -147.3,84.43 l -522.5,880.88 c -48.9,82.45 -22.5,189.41 58.8,238.93 81.4,49.53 187,22.89 235.9,-59.56 l 362.7,-611.48 479.6,953.83 c 43,85.73 146.5,119.81 231.2,76.17 84.5,-43.58 118.3,-148.44 75.2,-234.16 L 15661,6899.17 c -28.4,-56.42 -84.8,-92.83 -147.2,-95.01 -2.1,-0.07 -4,-0.14 -6.1,-0.14" /></g></g></g></g></g></svg>